<?xml version="1.0" encoding="UTF-8" standalone="no"?>
<svg
   width="197"
   height="60"
   viewBox="0 0 197 60"
   fill="none"
   version="1.1"
   id="svg832"
   sodipodi:docname="UN_logo2-white.svg"
   inkscape:version="1.2-dev (9ee32be, 2021-06-19)"
   xmlns:inkscape="http://www.inkscape.org/namespaces/inkscape"
   xmlns:sodipodi="http://sodipodi.sourceforge.net/DTD/sodipodi-0.dtd"
   xmlns="http://www.w3.org/2000/svg"
   xmlns:svg="http://www.w3.org/2000/svg">
  <sodipodi:namedview
     id="namedview834"
     pagecolor="#ffffff"
     bordercolor="#666666"
     borderopacity="1.0"
     inkscape:pageshadow="2"
     inkscape:pageopacity="0.0"
     inkscape:pagecheckerboard="0"
     showgrid="false"
     inkscape:zoom="5.857868"
     inkscape:cx="98.585355"
     inkscape:cy="29.959705"
     inkscape:window-width="1316"
     inkscape:window-height="869"
     inkscape:window-x="0"
     inkscape:window-y="38"
     inkscape:window-maximized="0"
     inkscape:current-layer="svg832" />
  <path
     id="emblem"
     d="m 56.9768,54.579 c 0.0353,0.0059 0.068,0.0222 0.0938,0.0469 -1.2674,1.2844 -2.8436,2.2213 -4.5773,2.7208 -1.1753,0.3262 -2.4038,0.4151 -3.6138,0.2615 -1.841,-0.2478 -3.5951,-0.9357 -5.114,-2.0054 -0.9335,-0.6154 -1.8585,-1.2515 -2.7827,-1.8854 -0.5075,-0.3341 -1.0762,-0.5641 -1.6732,-0.6766 -0.597,-0.1125 -1.2104,-0.1053 -1.8046,0.0212 -0.6689,0.0731 -0.1622,0.3939 -0.06,0.4285 1.658,0.8136 3.2295,1.793 4.6904,2.9231 0.9888,0.7284 2.7573,2.4423 2.7573,2.4423 l -1.3233,1.1438 c 0,0 -1.0104,-1.14 -1.4494,-1.5815 -1.7541,-1.8776 -3.7919,-3.4683 -6.039,-4.7139 -0.0873,-0.0606 -0.1882,-0.0989 -0.2937,-0.1115 -0.1068,0.0132 -0.2091,0.0514 -0.2984,0.1115 -2.2461,1.2471 -4.2837,2.8375 -6.039,4.7139 -0.4259,0.4277 -1.4447,1.5815 -1.4447,1.5815 l -1.3233,-1.14 c 0,0 1.7685,-1.7138 2.7619,-2.4423 1.4609,-1.1301 3.0324,-2.1094 4.6903,-2.923 0.1023,-0.0516 0.6098,-0.3731 -0.0553,-0.4285 -0.5929,-0.1254 -1.2048,-0.132 -1.8002,-0.0195 -0.5955,0.1125 -1.1628,0.3418 -1.6691,0.6749 -0.9227,0.6338 -1.85,1.2854 -2.7873,1.8854 -1.5189,1.0697 -3.2731,1.7575 -5.114,2.0053 -1.2101,0.1536 -2.4386,0.0647 -3.6139,-0.2615 -1.7348,-0.5018 -3.3121,-1.4401 -4.5812,-2.7254 0.0255,-0.0269 0.06,-0.0433 0.0969,-0.0461 l 0.2853,0.1415 c 1.881,0.9349 4.0284,1.1864 6.0744,0.7115 1.4159,-0.3308 2.7921,-0.8135 4.1044,-1.44 0.955,-0.4284 1.8969,-0.8569 2.8811,-1.1869 2.5024,-0.8102 5.1871,-0.8698 7.7229,-0.1715 h 0.2645 c 2.5356,-0.6981 5.22,-0.6385 7.7221,0.1715 0.9804,0.3254 1.9262,0.78 2.8811,1.1869 1.3083,0.622 2.6801,1.1004 4.0914,1.427 2.0403,0.4664 4.1792,0.2106 6.0521,-0.7239 z m 6.1159,-5.5708 c -0.8148,0.6547 -1.7462,1.149 -2.745,1.4569 -1.4032,0.4153 -2.858,0.6302 -4.3212,0.6385 -1.8842,0.0599 -3.7636,0.2229 -5.63,0.4884 h -0.0323 c -0.1192,0 -0.1745,-0.03 -0.1361,-0.0684 h 0.03 c 1.6361,-0.6755 2.951,-1.953 3.6739,-3.5693 0.5966,-1.1353 1.5685,-3.3592 1.8407,-3.7192 0.0085,-0.0323 0.0085,-0.0662 0,-0.0984 -0.1276,0.043 -1.973,1.6238 -2.8088,2.4084 -1.0396,0.9685 -2.0199,2.01 -3.0602,3 -1.3835,1.1961 -3.0336,2.0426 -4.8119,2.4685 l -0.0638,0.03 c -0.0173,0.0237 -0.0315,0.0496 -0.0423,0.0769 h 0.0385 c 0.6566,0.15 2.5574,0.5654 3.5285,0.8269 1.4843,0.4328 3.0073,0.7198 4.5473,0.8569 1.9609,0.1963 3.9383,-0.1433 5.7216,-0.9825 1.7833,-0.8392 3.3056,-2.1465 4.4049,-3.7828 -0.0214,-0.0094 -0.0446,-0.0143 -0.068,-0.0143 -0.0235,0 -0.0466,0.0049 -0.0681,0.0143 z m 5.7192,-8.8269 c -0.9423,1.1182 -2.047,2.0888 -3.2771,2.8792 -1.0638,0.7167 -2.1909,1.3346 -3.3671,1.8462 -1.4826,0.622 -2.8733,1.4437 -4.1336,2.4423 -0.0854,0.0684 -0.1538,0.1246 -0.2384,0.1846 -0.0846,0.06 -0.0938,0 -0.0423,-0.0816 0.0516,-0.0815 1.973,-2.0353 2.5574,-6.2007 0.0976,-1.4924 0.3315,-2.9727 0.699,-4.4223 0.0037,-0.0197 0.0029,-0.0399 -0.0023,-0.0592 -0.0052,-0.0193 -0.0147,-0.0372 -0.0277,-0.0524 -1.347,1.7114 -2.4,3.6351 -3.1156,5.6923 -0.3845,1.11 -0.7543,2.2239 -1.1534,3.3293 -0.4844,1.5114 -1.3031,2.8941 -2.3952,4.0454 l -0.1022,0.1115 c -0.0043,0.0226 -0.0043,0.0458 0,0.0685 l 0.3798,-0.0685 c 1.2787,-0.2654 2.5574,-0.5739 3.8353,-0.7885 2.0758,-0.3241 4.0361,-1.1673 5.6992,-2.4515 1.7569,-1.2771 3.1842,-2.9547 4.1636,-4.8939 0.2602,-0.5106 0.4728,-1.0441 0.6351,-1.5938 -0.0182,-0.0063 -0.0377,-0.0085 -0.0568,-0.0062 -0.0192,0.0023 -0.0376,0.0089 -0.0539,0.0193 z m 2.502,-9.8985 c -0.609,1.7846 -1.6313,3.3999 -2.9834,4.7139 -1.5725,1.5447 -3.0258,3.2064 -4.3474,4.9707 -0.03,0.0431 -0.1069,0 -0.0769,-0.0554 0.5453,-1.8038 0.6907,-3.7049 0.426,-5.5707 -0.2514,-1.5816 -0.9373,-3.2993 -1.108,-5.2308 -0.0059,-0.019 -0.0158,-0.0364 -0.029,-0.0512 -0.0133,-0.0147 -0.0296,-0.0264 -0.0479,-0.0342 -0.0309,0.0582 -0.0539,0.1203 -0.0684,0.1846 -0.4118,1.2428 -0.6834,2.5277 -0.8097,3.8308 -0.0807,1.5769 0.213,3.6038 0.0854,5.2239 -0.0177,1.8651 -0.4028,3.7085 -1.1334,5.4246 v 0.0215 c 0.0072,0.045 0.0172,0.0894 0.03,0.1331 0.682,-0.4285 2.6335,-1.5985 3.9214,-2.4616 1.62,-1.048 3.0247,-2.3963 4.1383,-3.9723 1.4093,-2.0288 2.1538,-4.4456 2.1306,-6.9161 0.0043,-0.0828 0.0043,-0.1657 0,-0.2485 z m -4.1429,1.0669 -0.03,0.0346 c -0.0236,-0.0103 -0.0442,-0.0265 -0.06,-0.0469 0.0603,-0.5278 0.0716,-1.0601 0.0339,-1.59 -0.1361,-1.8507 -1.2441,-3.3846 -2.2206,-4.9231 -0.6691,-1.0039 -1.2591,-2.0583 -1.7647,-3.1538 0,0 -0.0769,-0.0515 -0.0976,-0.0431 0,0.1669 0.0254,0.7116 0.06,1.0631 0.3629,2.6524 1.0282,5.2545 1.983,7.7554 0.6068,1.5598 0.8437,3.2392 0.692,4.9061 0,0.1454 0,0.1631 0.0384,0.2054 0.5921,-0.8569 1.7478,-2.07 2.4605,-2.9392 0.7797,-0.9469 4.6581,-5.3992 2.745,-11.6208 -0.0766,-0.2653 -0.1781,-0.5229 -0.3029,-0.7692 -0.03,0 -0.0807,0.0769 -0.0854,0.0985 0,4.4615 -2.1306,6.3807 -3.0341,9.4269 -0.1622,0.5869 -0.2937,1.1269 -0.4259,1.5769 z M 63.8263,17.4705 c -0.8938,-0.784 -1.6882,-1.6748 -2.3652,-2.6523 h -0.0246 c -0.032,-0.0085 -0.0657,-0.0085 -0.0977,0 h -0.0561 c 0.2968,1.041 0.6449,2.0651 1.0442,3.0723 0.6363,1.2803 1.4244,2.4792 2.3475,3.5708 0.0599,0.0854 0.1238,0.1669 0.183,0.2484 1.0818,1.5112 1.9429,3.1689 2.5574,4.9231 0,0.0346 0.0853,0.0685 0.0892,0.0554 0.1191,-0.4539 0.6774,-2.22 1.0864,-3.4277 0.3927,-1.2061 0.7157,-2.4337 0.9673,-3.6769 0.3799,-3.1218 -0.4231,-6.2727 -2.2506,-8.8316 -0.03,0 -0.0554,0.0854 -0.0469,0.1031 0.03,0.0985 0.0515,0.1754 0.0807,0.27 0.0293,0.0946 0.0723,0.2569 0.1023,0.39 0.3454,1.609 0.3715,3.2702 0.0769,4.8893 -0.2385,1.2831 -0.3584,2.5855 -0.3583,3.8907 0,0.2185 0.1445,1.83 0.1276,1.89 -0.0169,0.06 -0.0892,0 -0.0976,0 -0.0085,0 -0.2092,-0.6 -0.426,-1.0884 -0.0725,-0.1914 -0.1548,-0.3788 -0.2468,-0.5616 -0.6304,-1.2279 -1.555,-2.2806 -2.6912,-3.0638 z m -1.8792,-11.9 c 0.5453,0.52071 0.9801,1.14596 1.2786,1.83847 0.3969,1.32295 0.7016,2.67183 0.912,4.03693 0.183,0.7692 0.2983,1.2854 0.5667,2.1769 0,0.0769 -0.0554,0.1115 -0.0977,0.0385 L 64.5852,13.6359 C 63.6142,12.4386 62.4184,11.4429 61.0651,10.7051 60.1731,10.1668 59.393,9.46168 58.7676,8.6282 L 58.4178,8.16666 c -0.0303,-0.02019 -0.0659,-0.03066 -0.1023,-0.03 0,0.06519 0.0086,0.13009 0.0254,0.19307 0.292,1.48732 0.991,2.86437 2.0191,3.97767 0.8266,0.7931 1.7562,1.4954 2.6381,2.2308 1.1357,0.9704 2.1722,2.0514 3.0941,3.2269 0,0 0.0723,0.0431 0.0723,0 0,-0.2354 -0.03,-0.6038 -0.03,-1.0369 0,-0.9685 0.0423,-2.2669 0.0854,-3.1585 0,-0.36 0.03,-0.7238 0.0253,-1.0838 C 66.2808,11.4032 66.0861,10.3253 65.674,9.32358 65.0144,7.68904 63.7901,6.34575 62.2239,5.5382 62.1262,5.49159 62.0248,5.45301 61.9209,5.42281 61.9126,5.4409 61.9082,5.46058 61.9082,5.4805 c 0,0.01992 0.0044,0.03961 0.0127,0.0577 0,0 0.0177,0.0323 0.0262,0.0323 z M 55.2084,2.44281 c 0.9156,0.85799 1.7228,1.82493 2.4036,2.87923 0.6272,1.03274 1.385,1.98029 2.2544,2.81923 0.6097,0.62154 2.3836,2.00543 2.8296,2.35233 h 0.0384 V 10.472 C 62.6406,9.9582 61.8394,6.18666 59.4996,4.34435 58.162,3.28805 56.6102,2.53647 54.9523,2.14204 v 0.11154 c 0.0911,0.05777 0.1768,0.12368 0.2561,0.19692 z M 18.4715,53.7774 c 1.5399,-0.1364 3.0629,-0.4226 4.5473,-0.8546 0.9757,-0.2615 2.8726,-0.6769 3.5285,-0.8269 h 0.0385 C 26.575,52.0686 26.5608,52.0427 26.5435,52.019 l -0.0638,-0.03 c -1.7793,-0.4231 -3.4301,-1.27 -4.8119,-2.4685 -1.0395,-0.9685 -2.0199,-2.01 -3.0602,-3 -0.8527,-0.7838 -2.6804,-2.3654 -2.8088,-2.4085 -0.0104,0.032 -0.0104,0.0665 0,0.0985 0.2729,0.36 1.2441,2.5708 1.8407,3.7192 0.7217,1.6172 2.0369,2.895 3.6739,3.5693 h 0.03 c 0.0384,0.0384 0,0.09 -0.1361,0.0684 h -0.03 C 19.3152,51.3035 17.4401,51.1419 15.5604,51.0836 14.0978,51.0709 12.6443,50.8516 11.243,50.432 10.2442,50.1242 9.31282,49.6298 8.49798,48.9751 8.47777,48.9667 8.45608,48.9623 8.43417,48.9623 c -0.02192,0 -0.04361,0.0044 -0.06382,0.0128 1.09928,1.6363 2.62165,2.9437 4.40495,3.7829 1.7832,0.8392 3.7606,1.1787 5.7216,0.9825 z m -1.4609,-3.8569 0.379,0.0646 C 17.3864,49.9625 17.3791,49.9406 17.3681,49.9205 L 17.2658,49.809 c -1.0921,-1.1513 -1.9107,-2.534 -2.3951,-4.0454 -0.396,-1.1054 -0.7689,-2.22 -1.1534,-3.3293 -0.707,-2.061 -1.7607,-3.9861 -3.1156,-5.6923 -0.0241,0.0319 -0.0348,0.0719 -0.03,0.1116 0.3675,1.4496 0.6014,2.9299 0.699,4.4223 0.5713,4.1654 2.4805,6.1277 2.5574,6.2008 0.0768,0.073 0,0.1153 -0.0423,0.0815 C 13.7435,47.5243 13.632,47.4467 13.5474,47.3736 12.2865,46.3759 10.8959,45.5543 9.41375,44.9313 8.23756,44.4197 7.11053,43.8018 6.04671,43.0851 4.80637,42.2879 3.69416,41.307 2.74809,40.1759 2.72937,40.1674 2.70905,40.163 2.6885,40.163 c -0.02055,0 -0.04086,0.0044 -0.05959,0.0129 0.16235,0.5497 0.37495,1.0832 0.63512,1.5938 0.98426,1.9348 2.41429,3.6078 4.17209,4.8808 1.67194,1.3012 3.64758,2.155 5.74068,2.4808 1.2787,0.1969 2.5574,0.5054 3.8353,0.7692 z M 6.42732,41.3513 c 1.27869,0.8569 3.2394,2.0223 3.92138,2.4615 0,0 0.0469,-0.0854 0.03,-0.1331 -0.0169,-0.0477 0,0 0,-0.0253 C 9.65166,41.9374 9.26642,40.095 9.24459,38.2305 9.11696,36.6105 9.41068,34.5836 9.32994,33.0067 9.20486,31.7037 8.93458,30.4188 8.52413,29.1759 8.50771,29.1122 8.48478,29.0503 8.4557,28.9913 c -0.02538,0 -0.06844,0.06 -0.0769,0.0854 -0.17069,1.9323 -0.85271,3.6507 -1.10799,5.2307 -0.26467,1.8658 -0.1193,3.767 0.42597,5.5708 0.02999,0.0769 -0.0469,0.0985 -0.07689,0.0554 C 6.27535,38.1937 4.81632,36.5454 3.2525,34.9997 1.89794,33.6878 0.875263,32.0719 0.269136,30.2859 c 0,0 -0.076891,-0.0685 -0.093807,-0.06 -0.008522,0.0826 -0.008522,0.1658 0,0.2484 -0.023975,2.469 0.721258,4.8842 2.132181,6.91 1.10903,1.5741 2.50936,2.921 4.12519,3.9677 z M 5.7353,35.5667 C 5.77533,35.5045 5.78916,35.429 5.77375,35.3567 5.61797,33.6811 5.85492,31.9923 6.46576,30.4243 7.4102,27.92 8.07474,25.3188 8.44724,22.6682 8.48107,22.3167 8.51567,21.7728 8.50721,21.6051 8.47023,21.609 8.43574,21.6256 8.40956,21.652 c -0.50655,1.0935 -1.09651,2.1464 -1.76464,3.1493 -0.97575,1.5423 -2.08374,3.0723 -2.22061,4.923 -0.03703,0.5303 -0.02493,1.0628 0.03614,1.5908 4e-4,0.0075 -10e-4,0.015 -0.00408,0.0218 -0.00308,0.0068 -0.00774,0.0128 -0.0136,0.0175 -0.00578,0.0045 -0.01254,0.0077 -0.01975,0.0091 -0.00722,0.0015 -0.01468,0.0013 -0.02177,-7e-4 -0.05998,0 -0.02538,0 -0.02999,-0.0346 C 4.25208,30.8997 4.11982,30.3382 3.94528,29.7559 3.05027,26.7005 0.901947,24.7851 0.915018,20.329 c 0,0 -0.055361,-0.0985 -0.085349,-0.0985 -0.126657,0.2455 -0.228157,0.5033 -0.302949,0.7692 -1.91535,6.2193 1.97148,10.6716 2.73808,11.6154 0.73431,0.8685 1.89228,2.0939 2.47204,2.9508 z m -2.75115,-12.35 c 0.42597,1.1953 0.9719,2.9607 1.09108,3.4277 0,0 0.08073,0 0.08919,-0.0554 0.61871,-1.7524 1.47952,-3.4095 2.55739,-4.9231 0.05997,-0.0816 0.12379,-0.1631 0.183,-0.2485 0.91889,-1.0941 1.70554,-2.2929 2.34363,-3.5715 0.39881,-1.0062 0.74686,-2.0303 1.04416,-3.0723 h -0.0653 c -0.032,-0.0085 -0.0657,-0.0085 -0.0977,0 -0.0102,0.0048 -0.019,0.0122 -0.0254,0.0215 -0.677,0.9775 -1.47132,1.8683 -2.36513,2.6523 -1.12076,0.7772 -2.04573,1.8042 -2.70194,3 -0.07228,0.1454 -0.16224,0.3469 -0.24682,0.5616 -0.20914,0.4884 -0.42597,1.0769 -0.42597,1.0884 0,0.0116 -0.07228,0.0946 -0.09765,0 -0.02538,-0.0946 0.11533,-1.6715 0.12764,-1.89 1.3e-4,-1.3051 -0.11982,-2.6076 -0.35832,-3.8907 -0.30326,-1.6184 -0.2771,-3.2813 0.0769,-4.8893 0.02998,-0.1284 0.06381,-0.2615 0.10226,-0.39 l 0.0815,-0.2684 c 0,0 0,-0.0947 -0.0469,-0.1031 -1.8191,2.5628 -2.62247,5.7099 -2.25444,8.8315 0.25873,1.2576 0.58887,2.4993 0.98882,3.7193 z M 5.4262,16.7551 c 0.00803,0.3459 -0.00198,0.6921 -0.02999,1.0369 0,0.0254 0.07228,0 0.07228,0 0.92104,-1.1749 1.9576,-2.2544 3.09408,-3.2223 0.88194,-0.733 1.81153,-1.4354 2.63813,-2.2307 1.025,-1.1157 1.7212,-2.49354 2.0115,-3.9808 0.0168,-0.06298 0.0253,-0.12789 0.0253,-0.19308 -0.0364,-0.00123 -0.0722,0.00929 -0.1022,0.03 L 12.7854,8.65666 C 12.16,9.49014 11.38,10.1953 10.4879,10.7336 9.13098,11.4659 7.93416,12.4624 6.96786,13.6643 l -0.02153,0.0254 c -0.04229,0.0731 -0.11918,0.0385 -0.09765,-0.0384 0.26835,-0.857 0.38445,-1.41 0.56668,-2.177 C 7.72293,10.2143 7.84134,8.55127 8.3319,7.43743 8.62996,6.74474 9.0655,6.11981 9.61213,5.6005 c 0.0126,-0.03743 0.0126,-0.07795 0,-0.11538 C 9.50819,5.51531 9.40688,5.5539 9.30918,5.6005 7.74345,6.40906 6.51996,7.75318 5.8614,9.3882 5.46087,10.3797 5.27178,11.444 5.30625,12.5128 c 0,0.36 0,0.7239 0.02537,1.0839 0.05152,0.8915 0.09458,2.19 0.09458,3.1584 z m 3.37089,-6.2392 c 0.01246,0.0043 0.02599,0.0043 0.03845,0 0.42597,-0.3469 2.21596,-1.71386 2.82956,-2.35232 0.8745,-0.83877 1.6378,-1.78624 2.2714,-2.81923 0.6782,-1.0575 1.4859,-2.02603 2.4043,-2.88308 0.0769,-0.07307 0.1361,-0.12 0.213,-0.18846 0,0 0.03,-0.07692 0,-0.11154 -1.6589,0.39833 -3.2109,1.15442 -4.5473,2.21539 -2.33978,1.86 -3.14098,5.61538 -3.23478,6.12764 z M 35.1437,30.9851 c 0.183,-0.2746 -0.273,-0.4284 -0.3921,0.03 -0.1192,0.4585 0.196,0.2662 0.3921,-0.03 z m 4.9864,-11.5692 c -0.1792,-0.0946 -0.9081,0.8015 -0.7882,0.9431 0.325,-0.2672 0.5953,-0.5948 0.7959,-0.9647 z m 0.1576,-0.1585 c 0.1107,0.0554 0.5921,-0.2054 0.5029,-0.2784 -0.0892,-0.0731 -0.6567,-0.3385 -0.669,-0.1754 0,0.24 0.06,0.3731 0.1707,0.4284 z m 8.784,7.7423 c -0.2307,0 -0.4775,0.347 -0.426,0.3516 0.1661,0 0.2899,0.1246 0.426,0.0946 0.2599,-0.0731 0.2307,-0.4754 0,-0.4669 z m -3.1833,-8.3384 c -0.1961,0 -0.2468,0.223 -0.06,0.3215 0.1645,0.0333 0.3355,0.0059 0.4814,-0.0769 0.1322,-0.0816 0.2814,-0.1846 0.256,-0.3846 0,-0.1246 -0.3029,-0.467 -0.1538,-0.6 0.1492,-0.1331 0.3199,0.0815 0.4775,0 0.1577,-0.0816 0.1746,-0.1846 0.1792,-0.347 0.0046,-0.1623 -0.0807,-0.523 -0.3406,-0.523 -0.1961,0 -0.5329,0.5231 -0.5452,0.5569 -0.0513,0.1382 -0.0513,0.2902 0,0.4285 0.1238,0.2784 0.0769,0.5953 -0.2899,0.6038 z m 4.3128,0.0384 c 0,0.12 0.3406,0.9554 0.3753,1.187 0.0345,0.2315 0.1068,0.913 0.2898,0.8569 0.1154,-0.0431 0.1069,-0.4616 0.0808,-0.6254 -0.0722,-0.4835 -0.1877,-0.9595 -0.3453,-1.4223 -0.0938,-0.2831 -0.4944,-1.2123 -0.6266,-1.1823 -0.1323,0.03 0.2006,0.6769 0.2468,0.8915 0.0147,0.091 0.0147,0.1837 0,0.2746 z M 47.9299,7.49435 c 0.213,0.08154 0.213,-0.32154 -0.1492,-0.61539 -0.3622,-0.29384 -0.8527,-0.14999 -0.7074,0 0.2585,0.24041 0.5463,0.44717 0.8566,0.61539 z M 38.1271,4.6582 c -0.426,-0.27847 -0.0723,-0.66 -0.426,-0.91693 -0.1818,-0.06472 -0.3776,-0.07937 -0.567,-0.04243 -0.1894,0.03694 -0.3653,0.12413 -0.5095,0.25243 -0.2852,0.37693 0.3752,0.25308 0.6151,0.36 0.2399,0.10693 0.8528,0.61539 0.9458,0.51385 0.093,-0.10154 -0.0254,-0.11154 -0.0554,-0.16692 z m 2.5996,-1.31539 c -0.5751,-0.26538 -2.745,-0.25308 -2.6911,0.31308 0.0469,0.48846 1.2533,0.03 1.5639,0 0.3107,-0.03 1.6147,-0.05154 1.108,-0.31308 z M 34.381,28.7097 c -0.03,-0.1069 -0.2177,-0.09 -0.1707,0 0.0469,0.09 -0.0554,0.2016 0.0384,0.3254 0.0759,0.0623 0.171,0.0963 0.2691,0.0963 0.0981,0 0.1932,-0.034 0.2691,-0.0963 0.0313,-0.0424 0.0456,-0.095 0.04,-0.1473 -0.0055,-0.0524 -0.0305,-0.1009 -0.07,-0.1358 -0.1191,-0.0346 -0.3667,0.0647 -0.3921,-0.043 z m -0.8558,-4.3361 c 0.1791,0 0.1707,-0.1369 0.2768,-0.1285 0.1061,0.0085 0,0.1331 0.2006,0.1331 0.2007,0 0.3668,-0.4615 -0.2129,-0.4615 -0.4691,0 -0.426,0.45 -0.2645,0.4615 z m 0.7504,0.48 c -0.3583,-0.09 -0.2853,0.1154 -0.5075,0.1369 -0.3667,0.0431 -0.0423,-0.27 -0.2214,-0.4285 -0.0769,-0.0646 -0.2937,0.2485 -0.3076,0.4285 0,0.0946 0,0.4285 0.1407,0.4285 0.4159,0.0332 0.8299,0.0876 1.2403,0.163 0.2729,0.06 0,-0.643 -0.3322,-0.7284 z m -4.0191,4.3538 c 0.1108,0 0.1915,-0.3938 0.1238,-0.5869 -0.0676,-0.1931 -0.426,-0.0515 -0.4559,0.0385 -0.03,0.09 0.2329,0.5484 0.3352,0.5484 z M 25.0141,29.169 c 0,-0.1716 0,-0.6685 -0.1192,-0.7631 -0.1191,-0.0946 -0.1022,0.0854 -0.183,0.0731 -0.0807,-0.0123 -0.0638,-0.2354 -0.1445,-0.2354 -0.0808,0 0.03,0.3938 0.1153,0.6215 0.0854,0.2277 0.3137,0.6077 0.3353,0.3039 z m -0.1276,-1.2085 c 0.1087,-0.3911 0.1689,-0.7942 0.1791,-1.2 -0.0253,-0.3169 -0.196,-0.6154 -0.2383,-0.5915 -0.0423,0.0238 0.03,0.2184 0.0384,0.523 -0.0302,0.3364 -0.0975,0.6685 -0.2007,0.99 0,0.1416 0.1361,0.4616 0.2215,0.2785 z M 10.8478,25.0374 C 10.8392,19.2548 12.8335,13.6478 16.4913,9.17041 20.1492,4.69297 25.2447,1.62165 30.9109,0.478965 36.5726,-0.643636 42.4483,0.237572 47.532,2.97172 c 5.0838,2.73416 9.0595,7.15118 11.2464,12.49498 2.2055,5.3507 2.4962,11.2992 0.8229,16.8397 -1.6732,5.5404 -5.2078,10.3327 -10.006,13.5664 -3.0653,2.0504 -6.5477,3.3936 -10.1955,3.9325 -3.6478,0.5389 -7.3697,0.2601 -10.8966,-0.8163 -3.5268,-1.0764 -6.7705,-2.9234 -9.4964,-5.4076 -2.7259,-2.4842 -4.8659,-5.5433 -6.2652,-8.9563 -1.251,-3.0427 -1.8931,-6.3015 -1.89,-9.5915 z m 7.6744,16.5777 2.7104,-2.7208 c -0.5333,-0.5652 -1.0341,-1.1603 -1.5001,-1.7823 -0.2206,-0.0763 -0.4176,-0.2088 -0.5713,-0.3846 -0.2307,-0.3077 -0.3499,-0.733 -0.4613,-0.733 -0.1115,0 0,0.27 -0.2561,0.3076 -0.3368,0.047 -0.8097,-0.7884 -0.9927,-1.0969 -0.183,-0.3084 -0.5751,-0.36 -0.7543,-0.6984 -0.0515,-0.0985 -0.1707,-0.3939 -0.2814,-0.2185 -0.1876,0.3 -0.8227,-0.6554 -0.9842,-0.5869 -0.1614,0.0684 -0.0215,0.2615 -0.1153,0.3469 -0.183,0.1631 -0.7205,-0.7331 -0.9227,-0.6385 -0.2022,0.0946 -0.2307,0.2016 -0.243,0.4285 -0.0123,0.2269 0.2937,0.8569 0.1876,0.9231 -0.3953,-0.6035 -0.6543,-1.2861 -0.7589,-2 0.0977,-0.0516 0.0808,0.09 0.1876,0.0254 0.1069,-0.0647 -0.0769,-0.2054 -0.1276,-0.4285 -0.0507,-0.2231 -0.2468,-0.2308 -0.2645,-0.48 -0.0177,-0.2492 0.3368,-0.1631 0.3322,-0.2831 -0.004,-0.0631 0.0061,-0.1262 0.0293,-0.185 0.0233,-0.0588 0.0592,-0.1117 0.1052,-0.155 0.1154,-0.1031 0.3845,0 0.426,-0.3469 0.0415,-0.3469 0.2007,0 0.2307,0.2015 0.03,0.2016 0.6858,0.3216 0.7158,0.1454 0.03,-0.1761 -0.2599,-0.1069 -0.2599,-0.2054 0,-0.1884 0.3583,0 0.6013,0 0.1069,0 0.2984,-0.163 0.5383,-0.0384 0.1872,0.1106 0.3918,0.1886 0.6051,0.2307 -0.5789,-1.8369 -0.8917,-3.7473 -0.9289,-5.673 h -3.836 c 0.1095,5.9855 2.4608,11.7119 6.5887,16.0461 z M 34.2941,19.4028 c 0.0253,0.0431 -0.2515,0.2954 -0.3922,0.5385 0.4416,-0.1665 0.903,-0.2746 1.3725,-0.3216 v -3.8546 c -2.0773,0.1209 -4.0519,0.9444 -5.5999,2.3354 l 2.7188,2.7169 c 0.3052,-0.2612 0.638,-0.4882 0.9927,-0.6769 0.0938,-0.0469 0.1876,-0.09 0.2852,-0.1285 0.1661,-0.3 0.5713,-0.66 0.6221,-0.6084 z m -9.4299,14.3339 c 0.0085,0.0741 0.0085,0.1489 0,0.223 0.2007,0.2446 0.4006,0.4839 0.6151,0.7154 l 2.7066,-2.7169 c -1.3002,-1.4452 -2.1677,-3.2272 -2.5036,-5.1423 -0.0352,0.0163 -0.0753,0.0183 -0.1119,0.0055 -0.0366,-0.0128 -0.0668,-0.0393 -0.0842,-0.074 -0.0553,-0.0946 0.0254,-0.1931 0.1407,-0.2869 -0.0384,-0.2915 -0.0684,-0.5831 -0.0807,-0.8569 h -1.8031 c 0,0.2915 0.1361,0.7031 -0.0553,0.8569 -0.1915,0.1538 -0.3753,0 -0.516,0 -0.3452,0.0469 -0.426,0.4669 -0.3322,0.75 0.0811,0.1711 0.1191,0.3594 0.1108,0.5485 -0.0339,0.193 -0.1361,0.3469 0.1661,0.51 0.3021,0.163 0.7327,0.7238 0.6989,0.823 -0.0338,0.0993 -0.3283,-0.12 -0.3452,0.1116 0,0.1415 0.4259,-0.0385 0.3844,0.4284 -0.0125,0.2669 0.0339,0.5332 0.1361,0.78 0.2017,0.3401 0.3185,0.7237 0.3406,1.1185 -0.0608,0.3796 -0.0332,0.7682 0.0808,1.1354 0.1361,0.3731 0.4259,0.6685 0.4259,1.0923 z m -2.276,-6.4531 c -0.2214,-0.2569 0.1446,-0.9854 0.2007,-1.1269 0.0561,-0.1416 0.396,-0.347 0.4944,-0.5739 h -1.5855 c 0.0297,0.8344 0.1326,1.6645 0.3076,2.4808 0.3829,0.1277 1.1241,-0.1846 0.5828,-0.7808 z m -0.9926,10.3615 h -0.0385 c 0.1446,0.1631 0.2937,0.33 0.426,0.4885 l 0.3075,-0.3077 c -0.2683,-0.1754 -0.5328,-0.2915 -0.692,-0.1931 z m 6.5549,-19.5192 -2.6989,-2.6992 c -2.2962,2.4821 -3.6282,5.7049 -3.7545,9.0846 h 1.8876 c 0.1778,-0.3773 0.2847,-0.7841 0.3153,-1.2 0.1138,-0.2798 0.2566,-0.5469 0.4259,-0.797 0.1361,-0.2307 0.2938,-0.48 0.5883,-0.48 0.6151,0 0.7689,-0.33 1.1595,-0.51 0.3906,-0.18 1.0764,-0.2869 0.9996,-0.4884 -0.0769,-0.2016 -1.4402,0.4031 -1.4702,0.2954 -0.0554,-0.1846 0.426,-0.167 0.6436,-0.3554 0.0351,-0.0334 0.0754,-0.0609 0.1192,-0.0815 0.4389,-1.0176 1.0406,-1.9569 1.7815,-2.7808 z m -0.486,2.5385 0.1108,-0.0554 c 0.2031,-0.1061 0.4257,-0.17 0.6541,-0.1877 0.2285,-0.0177 0.4582,0.0111 0.6753,0.0846 0.338,0.1932 0.6577,0.417 0.955,0.6684 0.0853,0.0647 0.1238,-0.0515 0.5159,-0.1115 0.1661,-0.0254 0.2007,0.1415 0.426,0.1715 0.0805,0.0129 0.1625,0.0129 0.243,0 l -2.3483,-2.38 c -0.4805,0.5408 -0.8936,1.138 -1.2302,1.7785 z m -2.6512,2.9038 c -0.1215,-0.0144 -0.2448,2e-4 -0.3596,0.0427 -0.1149,0.0426 -0.218,0.1118 -0.3008,0.2019 -0.0831,0.0905 -0.1438,0.1992 -0.1771,0.3175 -0.0332,0.1183 -0.0382,0.2427 -0.0144,0.3633 h 1.3671 c 0.0056,-0.2577 0.0285,-0.5147 0.0685,-0.7693 -0.1801,-0.0949 -0.3771,-0.1533 -0.5798,-0.1715 z m 3.8915,7.6277 2.6981,-2.7169 c -0.222,-0.266 -0.4174,-0.553 -0.5836,-0.857 -0.0388,0.044 -0.0716,0.0929 -0.0977,0.1454 -0.0553,0.1246 0,0.5269 -0.1537,0.7031 -0.1538,0.1762 -0.7928,-0.4969 -0.9758,-0.5569 -0.183,-0.06 -0.3668,0.1969 -0.3537,0.2784 0.0338,0.2054 0,0.287 -0.0976,0.3077 -0.0977,0.0208 -0.5452,-0.2915 -0.3407,-0.373 0.2046,-0.0816 -0.0638,-0.2916 -0.166,-0.3731 -0.1746,-0.1331 -0.426,0 -0.5752,-0.1885 -0.1248,-0.1568 -0.2876,-0.2791 -0.4729,-0.3554 -0.1617,-0.0721 -0.3452,-0.0782 -0.5113,-0.0169 -0.1361,0.0731 -0.2853,-0.0769 -0.3844,-0.18 -0.0992,-0.1031 -0.1108,-0.12 -0.1707,-0.18 0.3196,1.6233 1.0686,3.1311 2.169,4.3662 z m 2.6981,-4.7139 v -0.343 c -0.0042,-0.0125 -0.0042,-0.026 0,-0.0385 l 0.0254,-0.0431 c 0.0168,-0.0187 0.0381,-0.0328 0.0619,-0.041 0.0238,-0.0083 0.0494,-0.0103 0.0742,-0.0059 0.1091,0.0332 0.22,0.0604 0.3321,0.0815 0.0449,0.0039 0.0901,-0.0044 0.1307,-0.024 0.0406,-0.0196 0.0751,-0.0499 0.1,-0.0875 0.0348,-0.0413 0.0636,-0.0874 0.0853,-0.1369 0.0202,-0.04 0.0318,-0.0838 0.0339,-0.1285 0.0043,-0.0169 0.0043,-0.0346 0,-0.0515 0,-0.0385 -0.0723,-0.0516 -0.183,0 H 32.1996 L 32.0673,25.689 H 32.0035 C 31.9734,25.6862 31.9444,25.6767 31.9186,25.6611 31.8928,25.6455 31.8708,25.6243 31.8543,25.599 31.8389,25.5798 31.8274,25.5579 31.8205,25.5343 31.8074,25.5046 31.7917,25.476 31.7736,25.449 31.7002,25.3605 31.6087,25.2889 31.5052,25.239 31.4498,25.2098 31.3981,25.1739 31.3515,25.132 l -0.0769,-0.073 -0.0554,-0.0647 -0.0384,-0.0346 -0.03,-0.0253 -0.0469,0.0084 -0.0339,-0.0254 h -0.1876 c -0.0704,-0.0112 -0.1425,-0.0046 -0.2097,0.0193 -0.0672,0.024 -0.1273,0.0644 -0.1747,0.1176 -0.0234,0.0194 -0.0448,0.041 -0.0639,0.0647 -0.0237,0.0256 -0.0439,0.0543 -0.0599,0.0853 0,0.0347 -0.0385,0.0685 -0.06,0.1031 -0.0458,0.0856 -0.0856,0.1743 -0.1192,0.2654 -0.3075,0.8185 -0.6689,0.5654 -0.6097,0.8569 0,0.0346 0.0938,0.06 0.2214,0.0685 h 0.8735 l 0.0769,-0.03 0.1276,-0.0515 c 0.0385,-0.0145 0.0785,-0.0246 0.1192,-0.03 0.0775,-0.0264 0.1617,-0.026 0.2389,0.0012 0.0773,0.0272 0.1432,0.0796 0.1871,0.1488 0.058,-0.0065 0.1165,-0.0065 0.1745,0 z m 3.6485,-11.8007 v -3.857 c -3.3767,0.1269 -6.5941,1.4689 -9.0609,3.7793 l 2.6981,2.7123 c 1.7508,-1.5927 3.9994,-2.5287 6.3628,-2.6485 z m 0,-4.9108 V 5.91358 c -4.6737,0.1404 -9.1286,2.01281 -12.5002,5.25382 l 2.7004,2.7123 c 2.6637,-2.5062 6.1476,-3.95772 9.8021,-4.08381 z M 22,11.9128 c -3.2161,3.4146 -5.0612,7.8953 -5.1824,12.5854 h 3.836 c 0.1222,-3.6683 1.5664,-7.1687 4.066,-9.8554 z M 16.8176,25.569 c 0.0503,1.9455 0.398,3.872 1.0311,5.7123 h 0.0515 c 0.3926,0.0315 0.7868,-0.0363 1.1464,-0.197 0.3753,-0.2915 0.03,-1.3323 0.2645,-1.7692 0.2899,-0.5384 1.0188,-1.8123 1.2357,-1.8215 0.2168,-0.0092 0.183,0.1369 0.2814,0.1631 -0.1108,-0.6872 -0.1747,-1.3811 -0.1915,-2.077 z M 35.259,45.1844 C 30.3078,45.0536 25.5826,43.083 22.0046,39.6567 l -2.7042,2.7184 c 4.2916,4.15 9.9934,6.5225 15.9609,6.6416 z m 0,-4.9062 c -3.3576,-0.1139 -6.5805,-1.3494 -9.1546,-3.5092 0.0545,0.0648 0.1044,0.1335 0.1492,0.2053 0.1745,0.3077 0.7843,0.9231 0.396,1.1701 -0.3883,0.2469 -0.8527,0.0684 -1.1534,0.0646 -0.3006,-0.0039 -0.8143,0.493 -1.0949,0.5384 -0.3042,0.0672 -0.6222,0.0309 -0.9035,-0.1031 -0.1092,-0.0496 -0.2123,-0.1115 -0.3075,-0.1846 l -0.426,0.4285 c 3.3777,3.2261 7.8306,5.0853 12.4986,5.2185 z m 0,-1.35 c -0.5161,0.0674 -1.0405,0.0311 -1.5424,-0.1069 -0.4006,-0.2785 -0.8781,-0.5531 -0.9288,-0.7693 -0.0977,-0.3846 -0.6152,-0.673 -0.6152,-1.0284 0,-0.3554 0.5452,-0.5316 0.4006,-0.9385 -0.1191,-0.3215 0.1961,-0.7238 0.769,-1.0069 -1.6502,-0.4072 -3.1732,-1.2184 -4.432,-2.3608 l -2.7104,2.7085 c 2.4627,2.3123 5.6807,3.6516 9.0562,3.7692 z m 0.8228,-5.1423 c 0.4259,-0.0685 0.8527,-0.1885 1.2064,-0.2231 0.3537,-0.0346 0,0.5315 0.2214,0.5569 0.2215,0.0254 1.4533,0.2308 1.5379,-0.0384 0.0845,-0.2693 0.0853,-0.317 0.3367,-0.3731 0.443,-0.0261 0.8724,-0.1632 1.2487,-0.3985 0.1446,-0.1069 0.426,-0.15 0.5329,-0.313 0.1069,-0.1631 -0.0638,-0.947 -0.3537,-0.8185 -0.1407,0.06 -0.3076,0.2654 -0.6098,0.4285 -0.3021,0.163 -0.4613,0.2015 -0.6604,-0.06 -0.1992,-0.2616 0.1068,-0.4285 0.2514,-0.5831 0.2214,-0.2446 0.426,-0.4969 0.6736,-0.4969 0.0976,0 0.6151,-0.257 0.5666,-0.4931 -0.0553,-0.3077 -0.652,0.03 -0.7927,-0.0946 -0.1407,-0.1246 0,-0.3077 -0.0769,-0.3431 -0.0769,-0.0354 -0.2899,0.2746 -0.1192,0.4285 0.0892,0.0853 -0.1407,0.3215 -0.4006,0.15 -0.2599,-0.1716 -0.2514,0.5999 -0.2307,0.7369 0.0208,0.1369 0.2938,0.0946 0.1108,0.3346 -0.183,0.24 -0.2561,0.0646 -0.3845,0.1846 -0.1284,0.12 -0.2007,0.1969 0,0.4069 0.2007,0.21 -0.0938,0.48 -0.1538,0.1846 -0.0423,-0.193 -0.4521,-0.1369 -0.5282,-0.3553 -0.0761,-0.2185 -0.426,-0.2054 -0.8181,-0.4285 -0.303,-0.1585 -0.2645,0.3077 0.256,0.4285 0.426,0.0984 0.426,0.1538 0.2899,0.4284 -0.1361,0.2746 -0.0807,-0.1754 -0.6051,-0.3169 -0.3407,-0.09 -0.3537,-0.27 -0.6221,-0.2654 -0.2683,0.0046 -0.1791,0.2569 -0.4613,0.1931 -0.213,-0.0516 -0.2468,0.24 -0.426,0.3215 -0.1791,0.0816 -0.2307,0.5439 -0.4729,0.6639 -0.3667,0.18 -1.1164,0.0469 -1.0826,-0.317 0.0338,-0.3638 0.0515,-0.6384 0.2599,-0.7692 0.2084,-0.1308 0.4898,0.2185 0.7458,0.1031 0.0507,-0.0294 0.0933,-0.0708 0.1242,-0.1206 0.0308,-0.0498 0.0489,-0.1065 0.0527,-0.1649 0.0038,-0.0585 -0.0068,-0.117 -0.031,-0.1703 -0.0241,-0.0534 -0.061,-0.1 -0.1074,-0.1357 -0.0469,-0.0647 -0.243,-0.1631 -0.2384,-0.2231 0.0046,-0.06 0.3845,-0.1116 0.5798,-0.2446 0.1808,-0.1733 0.3489,-0.3594 0.5028,-0.557 0.1023,-0.0815 0.3076,-0.103 0.3284,-0.18 0.0207,-0.0769 -0.1446,-0.2746 -0.1277,-0.3938 0.0169,-0.1192 0.06,-0.2146 0.1492,-0.2054 0.0892,0.0092 0.2045,0.2746 0.1446,0.3385 -0.06,0.0638 0.0469,0.1969 0.1745,0.1454 0.1276,-0.0516 0.5751,-0.2308 0.7035,-0.2616 0.1285,-0.0308 -0.0422,-0.4538 0,-0.5269 0.0423,-0.0731 0.1069,0.0254 0.1746,-0.0431 0.0677,-0.0684 -0.1407,-0.1369 -0.1069,-0.2869 0.0338,-0.15 0.4898,-0.2354 0.3622,-0.3215 -0.1277,-0.0862 -0.303,0.163 -0.426,0.2053 -0.2307,0.107 -0.3499,-0.15 -0.3406,-0.3469 0,-0.0946 0.1322,-0.4284 0,-0.4931 -0.1323,-0.0646 -0.183,0.3077 -0.2092,0.3847 -0.0455,0.0926 -0.0659,0.1956 -0.0592,0.2986 0.0068,0.103 0.0404,0.2024 0.0977,0.2883 0.0892,0.1754 0.0423,0.7631 -0.1361,0.8269 -0.1784,0.0638 -0.2768,-0.3 -0.3668,-0.4285 -0.0095,-0.0228 -0.0259,-0.0422 -0.0469,-0.0553 h -0.0554 l 0.0046,0.0169 -0.0599,0.0984 c -0.03,0.061 -0.0557,0.124 -0.0769,0.1885 -0.0087,0.031 -0.0262,0.0588 -0.0503,0.0801 -0.0242,0.0213 -0.054,0.0352 -0.0858,0.0399 -0.1928,0.0174 -0.3863,0.0245 -0.5798,0.0215 h -0.226 c 0.0259,0.1149 0.063,0.227 0.1107,0.3347 0.1069,0.2015 0.3076,0.3646 0.2768,0.51 -0.0308,0.1453 -0.652,0.2869 -0.7035,0.1753 -0.0516,-0.1115 0.1537,-0.4284 0.136,-0.5315 -0.0299,-0.2231 -0.1445,-0.3554 -0.1276,-0.5138 -1.0558,-0.1056 -2.0567,-0.5215 -2.8765,-1.1954 l -2.7165,2.7215 c 1.3535,1.2142 3.0361,2.0003 4.8356,2.2592 0.2599,-0.163 0.3668,-0.4284 0.5752,-0.2915 0.3075,0.2869 0.7074,-0.0469 0.9673,-0.09 z m 0.2429,6.4961 v 3.857 c 1.5144,-0.0423 3.0182,-0.2667 4.4789,-0.6685 -0.2983,-0.2569 -0.4259,-0.6685 -0.8058,-0.7969 -0.6351,-0.2485 -0.7881,-0.63 -0.4613,-1.2 0.183,-0.3077 0.1107,-0.4285 -0.1069,-0.7539 -0.2099,-0.3097 -0.5065,-0.5506 -0.8527,-0.6923 -0.7459,0.1385 -1.501,0.2215 -2.2591,0.2485 z m 1.8285,-1.2853 c -0.0769,-0.0614 -0.1679,-0.1025 -0.2647,-0.1197 -0.0968,-0.0172 -0.1964,-0.0099 -0.2897,0.0212 -0.622,0.1715 -0.4259,-0.3254 -1.2787,-0.1969 v 0.4884 c 0.6131,-0.0235 1.224,-0.088 1.8285,-0.193 z m 14.1279,3.3638 -2.7065,-2.7208 c -1.4041,1.3352 -2.9912,2.4635 -4.7134,3.3508 -0.5616,0.3913 -1.1632,0.7217 -1.7947,0.9854 -0.2173,0.125 -0.4582,0.2036 -0.7074,0.2308 -0.0789,-4e-4 -0.156,-0.0243 -0.2214,-0.0685 -1.8758,0.6301 -3.835,0.9767 -5.813,1.0285 v 3.833 c 5.963,-0.1136 11.6621,-2.4802 15.9526,-6.6246 z M 46.9449,14.6236 c -0.0014,0.009 -0.0048,0.0175 -0.01,0.025 -0.0052,0.0074 -0.0121,0.0136 -0.02,0.0181 0.631,0.6862 1.2014,1.4259 1.7047,2.2107 0.0553,-0.0731 0.1022,-0.1369 0.183,-0.0469 0.0807,0.09 -0.1407,0.4285 0.2599,0.3646 0.2383,-0.0469 0.1914,0.2654 0,0.4285 0.1238,0.2307 0.2429,0.45 0.3537,0.6815 0.1407,0.0646 0.2468,0.1416 0.2683,0.2308 0.0895,0.281 0.1622,0.5672 0.2176,0.8569 0.1915,0.4839 0.3583,0.9769 0.5029,1.4823 0.1961,-0.1669 0.426,-0.0769 0.426,0.2054 0.0157,0.2973 -0.0491,0.5934 -0.1877,0.8569 0.1748,0.8467 0.2777,1.7067 0.3076,2.5708 h 3.8353 c -0.0685,-2.4801 -0.6169,-4.9233 -1.6147,-7.1946 -0.0723,0.06 -0.1745,0.0646 -0.3029,0.2307 -0.1961,0.2485 -0.5075,-0.0599 -0.6774,-0.2746 -0.3199,-0.3938 -1.0765,-1.5123 -1.411,-1.5684 -0.3345,-0.0562 -0.4944,-0.4285 -0.7927,-0.4754 -0.2984,-0.0469 -0.669,-0.2308 -0.7159,-0.5485 -7e-4,-0.133 -0.0531,-0.2606 -0.1461,-0.3557 -0.0929,-0.0952 -0.2192,-0.1505 -0.3521,-0.1543 -0.3489,-0.0461 -0.6688,-0.2182 -0.8997,-0.4838 l -0.9119,0.9169 c 0.0039,0.0141 0.0039,0.029 0,0.0431 z m 2.4197,23.2869 0.2092,0.21 c 3.2071,-3.406 5.0486,-7.874 5.1732,-12.5515 h -3.8338 c -0.1264,3.6674 -1.5699,7.1664 -4.066,9.8553 l 1.3764,1.3847 0.0254,-0.06 c 0.0731,-0.2545 0.1019,-0.5196 0.0853,-0.7839 0,-0.1415 0.5383,-0.1069 0.5752,0.1331 0.086,0.2923 0.1913,0.5786 0.3152,0.8569 0.1488,0.3013 0.1965,0.6425 0.1361,0.9731 z m -2.9095,2.3969 c -0.0976,0.2446 -0.6097,0.6816 -0.5198,0.8231 1.028,-0.657 1.9912,-1.4104 2.8765,-2.25 l -2.6981,-2.7123 c -0.1876,0.18 -0.3844,0.3469 -0.5797,0.5138 -0.047,0.3131 0,0.557 0.3752,0.6731 0.3752,0.1162 1.0911,0.5439 0.9504,0.9516 -0.2257,0.443 -0.4776,0.8723 -0.7543,1.2853 -0.1915,0.377 0.469,0.4285 0.3452,0.7331 z m 0.6305,-15.8546 c -0.0042,0.0176 -0.0129,0.0338 -0.0254,0.0469 h 2.8042 c -0.0088,-0.4044 -0.0415,-0.8079 -0.0976,-1.2084 0,0.043 -0.0469,0.0815 -0.0638,0.1246 -0.213,0.4284 -0.243,0.1754 -0.2307,0 0.0447,-0.2426 0.1191,-0.4787 0.2214,-0.7031 -0.0113,-0.132 -0.0355,-0.2627 -0.0722,-0.39 -0.1034,0.1349 -0.2398,0.2408 -0.396,0.3077 -0.1238,0.06 -0.2384,0.3554 -0.2853,0.4669 -0.0469,0.1116 -0.3621,-0.03 -0.6151,0.09 -0.426,0.2185 -0.8996,0.2531 -0.5752,0.7154 0.2046,0.2785 -0.5028,0.1931 -0.6689,0.57 z m -0.9719,-9.0523 -2.6981,2.7123 c 0.4647,0.5193 0.8768,1.0833 1.2303,1.6839 0.3994,0.0424 0.7679,0.2349 1.0311,0.5384 0.196,0.2569 0.7689,0.7692 0.6774,1 -0.0515,0.1369 0.0684,0.3131 0.196,0.4285 0.2007,0.1369 0.3407,0.1331 0.426,0 0.2007,-0.2569 0.2307,-0.6 0.4944,-0.8185 0.2638,-0.2184 0.9842,0.5054 0.9804,0.6469 -0.0039,0.1416 -0.1707,0.1754 -0.2176,0.4285 -0.0684,0.3431 -0.3622,0.7538 -0.03,0.8569 0.4859,0.1669 0.5498,-0.0254 0.7797,-0.3684 0.1107,-0.1585 0.0853,-0.4285 0.2007,-0.57 0.0804,-0.0852 0.1758,-0.1548 0.2814,-0.2054 -0.1795,-0.7546 -0.4218,-1.4928 -0.7243,-2.2069 -0.0718,-0.0732 -0.1594,-0.129 -0.2561,-0.1631 -0.1745,-0.0554 -0.0769,-0.2146 -0.3075,-0.2869 -0.2307,-0.0724 -0.3622,-0.1585 -0.3845,-0.6154 0,-0.3731 0.3076,0.12 0.3921,0.0554 0.0205,-0.0169 0.038,-0.0372 0.0516,-0.06 -0.5752,-1.0998 -1.2914,-2.1197 -2.1307,-3.0339 z m -3.2732,3.6808 c -0.1121,-8e-4 -0.2232,-0.0211 -0.3284,-0.06 l -0.8903,0.8961 c 0.192,0.0116 0.383,0.0373 0.5713,0.0769 0.2129,0.077 0.1237,-0.6684 0.4859,-0.5953 0.3622,0.073 0.4613,0.3077 0.1576,0.4284 -0.3037,0.1208 0.0638,0.2869 -0.2306,0.39 -0.2945,0.1031 0.2214,0.33 0.2176,0.4285 -0.0039,0.0984 -0.3707,0.2054 0.1745,0.3769 0.5452,0.1715 0,-0.4615 0.0853,-0.5531 0.0854,-0.0915 0.396,0.1716 0.4775,0.047 0.03,-0.047 0.0808,-0.1247 0.1492,-0.2147 -0.2527,-0.4283 -0.5378,-0.8367 -0.8527,-1.2215 z m -1.3764,14.2392 c 0,0.1885 -0.183,0.0385 -0.2383,0.1031 0.5449,0.354 1.13,0.6417 1.7431,0.8569 0.3415,0.0971 0.7016,0.109 1.0488,0.0346 0.379,-0.0731 0.4859,0.1031 0.6605,0.0946 0.2514,0 0.4259,-0.3515 0.5582,-0.5615 0.3844,-0.5531 0.3152,-0.6254 0.426,-0.7154 0.1107,-0.09 0.5113,0.7415 0.4613,1.2854 0.0053,0.0812 -0.0049,0.1626 -0.03,0.24 l 0.0423,0.0431 c 2.2955,-2.4995 3.6184,-5.7399 3.7284,-9.1323 h -2.9026 c 0.1682,0.2427 0.3205,0.4961 0.456,0.7584 0.1491,0.3077 0.2306,0.7839 0.4813,0.81 0.396,0.0385 0.8058,0.3685 0.8181,0.6469 0,0.5785 -1.7731,0.72 -2.0076,0.647 -0.2345,-0.0731 -0.3283,-0.077 -0.3406,0.2354 -0.0123,0.3123 -0.6474,0.3553 -0.8996,0.5653 -0.2522,0.21 -0.3076,0.6731 -0.4944,0.977 -0.2891,0.3413 -0.6088,0.6554 -0.955,0.9384 -0.426,0.3 -1.2441,0.3169 -0.8527,0.5139 0.2645,0.1454 0.8527,0.193 0.7881,0.0554 -0.0646,-0.1377 0.0469,-0.18 0.1492,-0.047 0.1022,0.1331 0.3621,-0.0946 0.3537,-0.2784 -0.0085,-0.1839 -0.0423,-0.4539 0.1153,-0.4616 0.2599,0 0.5328,-0.3077 0.6605,-0.2784 0.1276,0.0292 0.3406,0.3554 0.1914,1.3454 -0.1221,0.7167 -0.397,1.3988 -0.8058,2 -0.2007,0.3346 -0.426,0.0769 -0.6774,-0.0647 -0.403,-0.1248 -0.814,-0.2222 -1.2302,-0.2915 -0.1915,-0.06 -1.2534,-0.4615 -1.2441,-0.3169 z M 59.6373,25.569 h -3.8361 c -0.124,4.9692 -2.0824,9.7166 -5.4977,13.3269 l 2.7065,2.7208 c 4.1465,-4.326 6.5125,-10.0554 6.6273,-16.0477 z M 53.0439,8.45435 50.2181,11.2959 c 0.4094,0.6248 0.8898,1.1999 1.4317,1.7138 0.2815,0.287 0.5798,0.57 0.8528,0.827 0.2729,0.2569 1.7815,2.1684 1.4832,2.4469 -0.0208,0.0222 -0.0437,0.0423 -0.0684,0.06 1.2021,2.5505 1.8624,5.3227 1.9391,8.1415 H 59.668 C 59.5503,18.4993 57.1862,12.7768 53.0454,8.45435 Z M 36.3332,4.88973 c 3.1422,0.07429 6.2216,0.89535 8.9839,2.39539 0.2311,-0.02193 0.4587,-0.07232 0.6774,-0.15 0.3368,-0.16308 1.0058,0.20154 1.3256,0.39 0.3199,0.18846 0.5244,0.42846 0.8527,0.60385 0.4709,0.29526 0.8179,0.75233 0.9758,1.28538 0.1192,0.53846 0.4613,0.50154 0.2899,0.71995 -0.0854,0.1116 0.0423,0.1501 0.2045,0.2485 L 52.298,7.71358 C 48.0069,3.56349 42.3044,1.1923 36.3371,1.07666 Z m 0,4.90616 c 3.1233,0.11252 6.1337,1.19701 8.6118,3.10231 -0.273,-0.3646 -0.5498,-0.7369 -0.6774,-0.8785 -0.2307,-0.2484 -1.1126,-0.5569 -1.0227,-0.6984 0.09,-0.1416 0.8527,0.48 0.9996,0.3684 0.1469,-0.1115 -0.3921,-0.8569 -0.3499,-0.8569 0.43,0.3094 0.7886,0.7073 1.0519,1.1669 0.1323,0.2016 0.4898,0.1031 0.7689,0.2954 0.2791,0.1923 0.2599,0.45 0.469,0.63 0.0339,0.03 0.4691,0.2831 0.2177,0.2531 -0.0769,0 -0.1877,-0.1631 -0.273,-0.0854 -0.0854,0.0777 0.0338,0.3215 0.183,0.6154 l 1.2841,-1.29 c -0.1658,-0.3842 -0.4434,-0.7097 -0.7966,-0.9338 -0.2515,-0.077 -0.426,0.1584 -0.6052,0.3076 -0.1791,0.1493 -0.4006,0.2016 -0.4259,0.0985 -0.0035,-0.1703 0.0037,-0.3406 0.0215,-0.51 0,-0.1454 -0.1323,-0.2615 -0.1707,-0.4031 -0.0892,-0.3346 0.0469,-0.703 -0.1576,-0.9231 C 45.2564,9.7752 45.0763,9.4784 44.9234,9.16743 44.6519,8.82925 44.4584,8.43525 44.3568,8.01358 41.8637,6.74968 39.121,6.05602 36.3271,5.98281 Z m 0,4.91081 c 2.3595,0.1205 4.604,1.0566 6.3504,2.6484 l 2.6912,-2.7123 c -2.4639,-2.3061 -5.6761,-3.6464 -9.0477,-3.7754 z m 0,4.9146 c 0.3618,0.0359 0.7189,0.1091 1.0657,0.2184 0.0938,-0.223 0.3199,-0.3346 0.5075,-0.4615 0.1876,-0.1269 0.3791,-0.3215 0.3498,0.09 -0.0058,0.1121 -0.0354,0.2216 -0.0868,0.3214 -0.0514,0.0997 -0.1235,0.1874 -0.2115,0.2571 0.3761,0.1637 0.7322,0.3702 1.0611,0.6153 l 0.213,0.1716 0.3675,-0.3723 c -0.0041,-0.0141 -0.0041,-0.029 0,-0.0431 0,-0.21 0.3076,-0.4615 0.6567,-0.6154 l 1.1887,-1.1923 h -0.1023 c -0.1622,0 -0.3844,0.3131 -0.5382,0.2185 -0.1538,-0.0946 0.5244,-0.7239 0.8527,-0.6039 l 0.1407,0.0554 0.1492,-0.1538 c -1.5458,-1.3922 -3.5196,-2.2159 -5.5961,-2.3354 z m -0.5328,1.0454 c -0.4338,8e-4 -0.8649,0.0672 -1.2787,0.1969 -0.0516,0.06 -0.0938,0.1115 -0.0639,0.1538 0.1069,0.1539 0.426,-0.1669 0.4691,0.1285 0.03,0.2184 -0.3537,0.0554 -0.3199,0.2184 0.0338,0.1631 0.2937,0.0731 0.303,0.2485 -0.0229,0.2156 -0.1265,0.4146 -0.2899,0.5569 -0.1707,0.1116 -1.0865,0.2308 -1.1718,0.4285 -0.068,0.1876 -0.1708,0.3606 -0.303,0.51 -0.1538,0.1631 -0.8865,0.6 -0.8904,0.7154 0,0.27 0.3537,-0.0731 0.4521,-0.18 0.1945,-0.1169 0.3985,-0.2173 0.6098,-0.3 0.3237,-0.1885 0.4521,0.4615 0.1022,0.4838 -0.2176,0 -0.4006,0.63 -0.7412,0.5139 -0.0853,-0.0346 -0.3283,-0.1846 -0.3791,-0.0254 -0.0507,0.1592 0.5075,0.1885 0.6821,0.3077 0.4259,0.2954 -0.3407,0.2746 -0.4691,0.3554 -0.1284,0.0807 -0.0599,0.2569 0.1108,0.1846 0.1707,-0.0723 0.3844,-0.24 0.4898,0.0384 0.136,0.3847 -0.6221,1.7693 -0.8528,1.6239 -0.1238,-0.0769 -0.2468,0.0346 -0.3621,0.0815 0.1545,0.3061 0.3433,0.5936 0.5628,0.857 0.1492,-0.2485 0.3845,-0.6001 0.486,-0.6039 0.1015,-0.0038 0.0938,-0.1154 0.1491,-0.2146 0.0554,-0.0992 0.2307,0 0.243,-0.1585 0.0123,-0.1584 0.426,-0.4031 0.4813,-0.6469 0.0254,-0.1285 -0.1322,-0.2615 -0.0684,-0.3685 0.022,-0.044 0.0531,-0.0829 0.0913,-0.1139 0.0382,-0.0311 0.0826,-0.0536 0.1302,-0.0661 0.0807,-0.03 0.2814,0.1716 0.3406,0.0854 0.0592,-0.0861 0.3583,0 0.5836,0.1246 0.1069,0.0647 0.3075,0 0.426,0.1631 0.1707,0.2446 0,0.2654 0,0.3169 0,0.0516 0.1022,-0.03 0.1491,0 0.0469,0.03 -0.4259,0.4285 -0.3844,0.587 -0.1217,0.4231 -0.3261,0.8179 -0.6013,1.1615 -0.1407,0.1369 -0.5198,0 -0.6436,0 -0.1238,0 -0.1661,0.1539 -0.3791,0.1031 -0.1871,-0.0208 -0.376,0.0197 -0.5382,0.1154 0.7893,0.709 1.8119,1.1024 2.8726,1.1053 0.232,-7e-4 0.4635,-0.0208 0.6921,-0.06 0.1311,-0.1859 0.2107,-0.4033 0.2306,-0.63 -0.0037,-0.1353 0.0166,-0.2702 0.06,-0.3984 0.0554,-0.0946 0.426,-0.5315 0.5498,-0.5231 0.1238,0.0085 0.2091,0.1115 0.3844,0.0554 0.3499,-0.1069 0.5629,0 0.5667,0.1331 0.0039,0.1331 -0.426,0.15 -0.426,0.27 0,0.12 0.3322,0.2054 0.426,0.0854 0.0715,-0.076 0.1205,-0.1702 0.1415,-0.2724 0.021,-0.1021 0.0133,-0.2081 -0.0223,-0.3061 -0.1407,-0.1754 -0.1323,-0.2485 0.0684,-0.18 0.1238,0.0431 0.1238,-0.4285 0.2384,-0.6338 0.1146,-0.2054 -0.2937,-0.0731 -0.486,-0.047 -0.1922,0.0262 -0.3283,-0.36 -0.3321,-0.493 -0.0039,-0.1331 0.3406,0.343 0.5159,0.3515 0.1033,-0.0087 0.2009,-0.051 0.2778,-0.1204 0.077,-0.0695 0.129,-0.1623 0.1482,-0.2642 0,-0.167 -0.3752,-0.1885 -0.426,-0.3939 -0.0338,-0.1115 0.303,0 0.2768,-0.1115 -0.0261,-0.1116 0.0338,-0.3254 -0.1791,-0.4285 -0.213,-0.103 -0.426,-0.7754 -0.5752,-0.823 -0.1491,-0.0477 -0.2768,0.1669 -0.3668,0.2399 -0.0899,0.0731 -0.2383,-0.0515 -0.1622,-0.1246 0.1748,-0.1328 0.3199,-0.3008 0.426,-0.493 0.0892,-0.2916 0.4613,0 0.3921,-0.39 -0.0692,-0.39 -0.4259,-0.3516 -0.2683,-0.5654 0.0321,-0.0374 0.0548,-0.0819 0.0661,-0.1298 0.0114,-0.048 0.0111,-0.098 -9e-4,-0.1458 -0.012,-0.0478 -0.0353,-0.092 -0.0679,-0.1289 -0.0326,-0.0369 -0.0736,-0.0655 -0.1196,-0.0832 -0.0621,-0.0227 -0.1299,-0.0243 -0.193,-0.0046 -0.1661,0.03 -0.3368,-0.24 -0.3583,-0.4716 0,-0.1331 -0.3752,-0.1115 -0.3621,-0.2484 0.0299,-0.2785 -0.3845,-0.3077 -0.639,-0.287 -0.3107,-0.0671 -0.5916,-0.2324 -0.8012,-0.4715 -0.0554,-0.0985 -0.426,0.0854 -0.2899,-0.2915 0.1361,-0.377 0.4614,0.0684 0.6098,-0.0385 0.0517,-0.0322 0.089,-0.0831 0.104,-0.1422 0.0151,-0.0591 0.0067,-0.1217 -0.0233,-0.1747 z M 19.3065,7.71358 22.0131,10.4344 c 3.578,-3.42639 8.3031,-5.397 13.2544,-5.52774 V 1.05435 C 29.2929,1.17337 23.5853,3.55286 19.2942,7.71358 Z m -7.373,16.78462 h 3.8353 c 0.1271,-4.9672 2.0851,-9.712 5.4977,-13.3223 L 18.543,8.45512 C 14.4053,12.7837 12.045,18.51 11.9304,24.4982 Z"
     fill="#009edb" />
  <path
     id="United Nations outlined"
     d="M 96.0072,3.48894 H 101.04 V 19.5459 c 0,2.8297 -0.881,4.9746 -2.6423,6.4346 -1.8964,1.5062 -4.27,2.2819 -6.6895,2.1861 -2.4291,0.1008 -4.8136,-0.675 -6.7187,-2.1861 -1.7464,-1.4575 -2.6212,-3.6023 -2.6243,-6.4346 V 3.48894 H 87.407 V 19.5459 c 0,1.6046 0.3808,2.7689 1.1426,3.493 0.9048,0.7035 2.0181,1.0854 3.164,1.0854 1.146,0 2.2592,-0.3819 3.1641,-1.0854 0.7604,-0.7261 1.138,-1.893 1.138,-3.493 z M 112.18,13.3151 c -0.621,-0.0292 -1.238,0.1184 -1.779,0.4257 -0.541,0.3073 -0.984,0.7616 -1.278,1.3104 v 12.7631 h -4.834 V 9.73663 h 4.549 l 0.165,2.07157 c 0.619,-0.7798 1.412,-1.4036 2.316,-1.82158 0.903,-0.41797 1.892,-0.61845 2.887,-0.58537 0.758,-0.03394 1.516,0.08473 2.228,0.34899 0.712,0.26426 1.364,0.66876 1.917,1.18946 1.045,1.0215 1.568,2.8085 1.572,5.3608 v 11.5138 h -4.868 V 16.2859 c 0.052,-0.423 0.013,-0.8522 -0.115,-1.2586 -0.129,-0.4064 -0.343,-0.7805 -0.628,-1.0968 -0.616,-0.4491 -1.371,-0.667 -2.132,-0.6154 z m 10.903,-8.25539 c -0.009,-0.3323 0.053,-0.66269 0.18,-0.96973 0.127,-0.30705 0.318,-0.5839 0.559,-0.81258 0.554,-0.46088 1.252,-0.7132 1.972,-0.7132 0.721,0 1.419,0.25232 1.973,0.7132 0.469,0.47617 0.733,1.1181 0.733,1.78692 0,0.66883 -0.264,1.31076 -0.733,1.78693 -0.555,0.45851 -1.253,0.7093 -1.973,0.7093 -0.72,0 -1.417,-0.25079 -1.972,-0.7093 -0.244,-0.22907 -0.435,-0.5073 -0.563,-0.81619 -0.127,-0.30889 -0.187,-0.64138 -0.176,-0.97535 z m 5.151,4.66923 V 27.8059 h -4.863 V 9.73663 Z M 140.81,27.6912 c -0.937,0.3101 -1.918,0.4621 -2.905,0.45 -1.37,0.0729 -2.717,-0.3676 -3.78,-1.2353 -0.934,-0.8236 -1.403,-2.1918 -1.406,-4.1047 v -9.5384 h -2.671 V 9.73663 h 2.659 V 5.27509 h 4.817 v 4.46154 h 3.075 v 3.52697 h -3.075 v 9.0338 c -0.038,0.2701 -0.015,0.5452 0.065,0.8056 0.081,0.2605 0.218,0.4999 0.402,0.7013 0.41,0.2712 0.898,0.3997 1.389,0.3654 0.265,0.0029 0.53,-0.0113 0.794,-0.0423 0.238,-0.0254 0.424,-0.0554 0.607,-0.0892 z m 17.464,-2.8223 c -0.708,0.9329 -1.609,1.7017 -2.642,2.2539 -1.357,0.7226 -2.88,1.0746 -4.416,1.0208 -2.832,0 -5.032,-0.849 -6.601,-2.547 -1.57,-1.6726 -2.423,-3.8943 -2.374,-6.1884 v -0.6539 c -0.099,-2.4451 0.714,-4.8399 2.28,-6.7192 0.767,-0.8707 1.719,-1.5583 2.786,-2.0122 1.067,-0.454 2.223,-0.66274 3.381,-0.61088 2.599,0 4.581,0.81358 5.946,2.44078 1.434,1.8348 2.158,4.1256 2.038,6.4515 v 2.0546 h -11.546 c 0.12,1.0762 0.611,2.077 1.388,2.8308 0.812,0.7357 1.88,1.1225 2.974,1.0769 0.835,0.0335 1.667,-0.1322 2.426,-0.4834 0.759,-0.3512 1.424,-0.8779 1.94,-1.5366 z m -7.636,-11.5792 c -0.45,-0.0263 -0.899,0.0537 -1.312,0.2336 -0.413,0.1798 -0.778,0.4545 -1.065,0.8018 -0.6,0.7866 -0.976,1.7209 -1.088,2.7038 h 6.719 v -0.3653 c 0.011,-0.8739 -0.275,-1.7255 -0.811,-2.4154 -0.307,-0.3355 -0.687,-0.5957 -1.111,-0.7606 -0.423,-0.1648 -0.879,-0.2299 -1.332,-0.1902 z m 21.482,14.5246 -0.231,-1.9015 c -0.536,0.6843 -1.211,1.2483 -1.979,1.6554 -0.824,0.4078 -1.735,0.6074 -2.654,0.5815 -1.019,0.0422 -2.032,-0.1747 -2.944,-0.6305 -0.912,-0.4558 -1.694,-1.1355 -2.272,-1.9756 -1.29,-1.9339 -1.938,-4.2257 -1.851,-6.5493 V 18.642 c -0.11,-2.3681 0.54,-4.7092 1.856,-6.6808 0.592,-0.8303 1.382,-1.4986 2.3,-1.9436 0.917,-0.44502 1.931,-0.65245 2.949,-0.60328 0.82,-0.02064 1.634,0.14158 2.383,0.47488 0.75,0.3333 1.415,0.8293 1.949,1.452 V 2.14355 h 4.85 V 27.8143 Z m -7.097,-8.8331 c -0.038,1.277 0.225,2.5449 0.769,3.7008 0.24,0.4933 0.624,0.9028 1.1,1.1753 0.477,0.2724 1.024,0.3952 1.571,0.3524 0.653,0.0391 1.303,-0.1182 1.866,-0.4517 0.564,-0.3335 1.014,-0.828 1.294,-1.4198 v -7.1539 c -0.271,-0.5912 -0.714,-1.0863 -1.273,-1.4198 -0.558,-0.3335 -1.204,-0.4897 -1.853,-0.4479 -0.551,-0.0359 -1.102,0.0935 -1.58,0.3717 -0.478,0.2783 -0.862,0.6928 -1.104,1.1906 -0.559,1.1797 -0.83,2.4752 -0.79,3.78 z M 102.411,32.5636 V 56.8974 H 97.3958 L 87.6276,40.8743 V 56.8974 H 82.5959 V 32.5636 h 5.0356 l 9.769,16.0415 V 32.5636 Z m 14.101,24.3338 c -0.233,-0.5142 -0.396,-1.0576 -0.484,-1.6154 -0.522,0.5647 -1.142,1.0302 -1.83,1.3739 -0.852,0.4098 -1.79,0.6077 -2.735,0.5769 -1.594,0.0474 -3.149,-0.4968 -4.366,-1.5277 -0.568,-0.4723 -1.022,-1.0669 -1.329,-1.7394 -0.306,-0.6725 -0.456,-1.4056 -0.439,-2.1445 -0.038,-0.8521 0.137,-1.7001 0.507,-2.4683 0.371,-0.7681 0.926,-1.4323 1.616,-1.9332 1.416,-1.0441 3.495,-1.5661 6.235,-1.5661 h 2.18 v -1.0531 c 0.035,-0.7208 -0.193,-1.4298 -0.642,-1.9946 -0.263,-0.2671 -0.581,-0.4723 -0.933,-0.6008 -0.352,-0.1285 -0.728,-0.1771 -1.101,-0.1423 -1.725,0 -2.591,0.7215 -2.591,2.1731 h -4.867 c 0.008,-0.792 0.201,-1.5711 0.564,-2.275 0.363,-0.7039 0.886,-1.3131 1.526,-1.7789 1.612,-1.2021 3.594,-1.8026 5.602,-1.6977 1.858,-0.0674 3.684,0.4917 5.186,1.5877 0.699,0.571 1.251,1.3018 1.61,2.1308 0.358,0.829 0.512,1.7321 0.449,2.6331 v 7.6384 c -0.016,0.8344 0.045,1.6684 0.183,2.4916 0.102,0.5686 0.283,1.1202 0.538,1.6384 v 0.2931 z m -3.998,-3.3577 c 0.732,0.024 1.455,-0.1646 2.082,-0.5431 0.502,-0.2899 0.924,-0.6998 1.23,-1.193 v -3.1408 h -1.972 c -1.005,-0.0868 -2.005,0.2021 -2.809,0.8108 -0.284,0.2473 -0.511,0.5541 -0.665,0.8987 -0.153,0.3446 -0.229,0.7187 -0.222,1.0959 -0.008,0.2778 0.043,0.5542 0.151,0.8105 0.108,0.2562 0.269,0.4864 0.474,0.6749 0.481,0.4099 1.102,0.6168 1.733,0.5769 z m 20.488,3.2262 c -0.429,0.1408 -0.867,0.25 -1.312,0.3269 -0.528,0.0856 -1.062,0.1267 -1.597,0.1231 -1.37,0.0728 -2.718,-0.3677 -3.78,-1.2354 -0.935,-0.8236 -1.403,-2.1931 -1.406,-4.1085 v -9.5461 h -2.674 v -3.527 h 2.659 v -4.4484 h 4.833 v 4.4615 h 3.076 v 3.5146 h -3.076 v 9.0539 c -0.037,0.2701 -0.015,0.5452 0.066,0.8056 0.081,0.2605 0.218,0.4999 0.402,0.7013 0.41,0.2712 0.898,0.3996 1.388,0.3654 0.266,0.0062 0.531,-0.0066 0.795,-0.0385 0.263,-0.0384 0.424,-0.0592 0.615,-0.093 z m 2.026,-22.64 c -0.01,-0.3345 0.051,-0.6674 0.178,-0.9768 0.127,-0.3095 0.319,-0.5885 0.561,-0.8186 0.556,-0.4585 1.253,-0.7093 1.973,-0.7093 0.72,0 1.417,0.2508 1.973,0.7093 0.469,0.4761 0.732,1.1181 0.732,1.7869 0,0.6688 -0.263,1.3108 -0.732,1.7869 -0.556,0.4585 -1.253,0.7093 -1.973,0.7093 -0.72,0 -1.417,-0.2508 -1.973,-0.7093 -0.239,-0.2258 -0.428,-0.4992 -0.555,-0.8025 -0.128,-0.3034 -0.19,-0.6301 -0.184,-0.959 z m 5.152,4.6692 V 56.872 h -4.849 v -18.06 z m 2.768,9.2231 v -0.3523 c -0.081,-2.3912 0.714,-4.7296 2.237,-6.5747 1.492,-1.7574 3.599,-2.6346 6.32,-2.6315 2.752,0 4.875,0.8772 6.37,2.6315 1.526,1.8426 2.318,4.1837 2.225,6.5747 v 0.3523 c 0.084,2.3874 -0.709,4.7229 -2.228,6.5661 -1.484,1.7436 -3.596,2.6154 -6.337,2.6154 -2.741,0 -4.864,-0.8743 -6.37,-2.6231 -1.533,-1.825 -2.331,-4.1563 -2.238,-6.5384 z m 4.844,-0.3523 v 0.3523 c -0.039,1.3021 0.252,2.593 0.846,3.7523 0.284,0.5095 0.708,0.9263 1.223,1.2003 0.515,0.274 1.097,0.3935 1.678,0.3443 0.577,0.0508 1.157,-0.0683 1.667,-0.3428 0.511,-0.2744 0.93,-0.6922 1.206,-1.2018 0.594,-1.1593 0.885,-2.4502 0.846,-3.7523 v -0.3523 c 0.032,-1.2946 -0.259,-2.5768 -0.846,-3.7308 -0.278,-0.5165 -0.701,-0.9409 -1.216,-1.2213 -0.515,-0.2805 -1.101,-0.4048 -1.685,-0.3579 -0.582,-0.0488 -1.164,0.075 -1.676,0.3559 -0.511,0.2809 -0.928,0.7064 -1.199,1.2233 -0.588,1.1629 -0.879,2.4534 -0.846,3.7561 z m 22.629,-5.2677 c -0.622,-0.0292 -1.24,0.1183 -1.782,0.4256 -0.542,0.3072 -0.986,0.7615 -1.28,1.3105 V 56.8974 H 162.53 V 38.812 h 4.532 l 0.165,2.0716 c 0.617,-0.7816 1.409,-1.4067 2.312,-1.8249 0.903,-0.4182 1.892,-0.6176 2.887,-0.5821 0.763,-0.0366 1.525,0.0807 2.242,0.345 0.716,0.2643 1.372,0.6702 1.928,1.1935 1.045,1.0215 1.569,2.8085 1.572,5.3608 v 11.5215 h -4.872 V 45.3589 c 0.052,-0.4229 0.013,-0.8522 -0.115,-1.2586 -0.129,-0.4063 -0.343,-0.7804 -0.628,-1.0967 -0.617,-0.4493 -1.372,-0.6672 -2.132,-0.6154 z m 20.722,9.4907 c -0.002,-0.2586 -0.068,-0.5126 -0.193,-0.7393 -0.124,-0.2266 -0.303,-0.4187 -0.52,-0.5591 -0.923,-0.5129 -1.93,-0.855 -2.974,-1.01 -1.645,-0.3041 -3.213,-0.9379 -4.608,-1.8631 -0.588,-0.3958 -1.066,-0.936 -1.386,-1.5689 -0.321,-0.633 -0.474,-1.3375 -0.444,-2.0465 0.006,-0.757 0.182,-1.503 0.513,-2.1837 0.332,-0.6806 0.81,-1.2788 1.402,-1.7509 1.491,-1.2057 3.378,-1.8112 5.292,-1.6977 1.986,-0.1139 3.95,0.4718 5.55,1.6554 0.639,0.4911 1.154,1.1243 1.505,1.8494 0.351,0.725 0.528,1.522 0.517,2.3275 h -4.844 c 0.007,-0.313 -0.049,-0.6243 -0.163,-0.9158 -0.115,-0.2914 -0.286,-0.5572 -0.504,-0.7819 -0.284,-0.2494 -0.616,-0.4389 -0.975,-0.5571 -0.359,-0.1182 -0.738,-0.1626 -1.115,-0.1306 -0.673,-0.0405 -1.34,0.1578 -1.881,0.56 -0.213,0.1651 -0.384,0.3769 -0.501,0.6191 -0.117,0.2422 -0.177,0.5081 -0.174,0.7771 0.003,0.2583 0.074,0.5113 0.204,0.7344 0.13,0.2231 0.316,0.4086 0.539,0.5387 0.819,0.4411 1.711,0.7279 2.634,0.8461 1.72,0.3002 3.372,0.9053 4.88,1.7869 0.646,0.4112 1.169,0.9908 1.511,1.6765 0.341,0.6858 0.49,1.4519 0.43,2.2158 0.004,0.7791 -0.181,1.5475 -0.54,2.239 -0.359,0.6914 -0.881,1.285 -1.52,1.7295 -1.626,1.1237 -3.578,1.6761 -5.551,1.5708 -2.531,0 -4.465,-0.648 -5.802,-1.9439 -0.601,-0.5151 -1.09,-1.1488 -1.436,-1.8615 -0.346,-0.7128 -0.541,-1.4892 -0.573,-2.2808 h 4.6 c -0.015,0.4013 0.074,0.7996 0.257,1.1569 0.183,0.3574 0.454,0.662 0.788,0.8847 0.679,0.4193 1.465,0.6331 2.264,0.6153 1.86,0.0047 2.815,-0.6323 2.815,-1.9015 z"
     fill="#000000"
     style="fill:#ffffff" />
  <defs
     id="defs830">
    <clipPath
       id="clip0_13501_17428">
      <rect
         width="196.071"
         height="60"
         fill="white"
         id="rect827" />
    </clipPath>
  </defs>
</svg>
