<?xml version="1.0" encoding="UTF-8" standalone="no"?>
<svg
   width="100%"
   height="100%"
   viewBox="0 0 3500 2000"
   version="1.1"
   xml:space="preserve"
   style="fill-rule:evenodd;clip-rule:evenodd;stroke-linejoin:round;stroke-miterlimit:2;"
   id="svg892"
   sodipodi:docname="ietf-white.svg"
   inkscape:version="1.2-dev (9ee32be, 2021-06-19)"
   xmlns:inkscape="http://www.inkscape.org/namespaces/inkscape"
   xmlns:sodipodi="http://sodipodi.sourceforge.net/DTD/sodipodi-0.dtd"
   xmlns="http://www.w3.org/2000/svg"
   xmlns:svg="http://www.w3.org/2000/svg"><defs
   id="defs896">
        
        
        
        
        
        
        
        
        
        
        
        
        
        
        
        
    </defs><sodipodi:namedview
   id="namedview894"
   pagecolor="#ffffff"
   bordercolor="#666666"
   borderopacity="1.0"
   inkscape:pageshadow="2"
   inkscape:pageopacity="0.0"
   inkscape:pagecheckerboard="0"
   showgrid="false"
   inkscape:zoom="0.324"
   inkscape:cx="1373.4568"
   inkscape:cy="1808.642"
   inkscape:window-width="1509"
   inkscape:window-height="870"
   inkscape:window-x="0"
   inkscape:window-y="38"
   inkscape:window-maximized="0"
   inkscape:current-layer="svg892" />
    
    <g
   id="g826">
            <path
   d="M 504.454,443.246 300.1,647.6 504.454,851.954 708.808,647.6 Z"
   style="fill:#bbbcc1"
   id="path824" />
        </g><g
   id="g830">
            <path
   d="M 986.162,443.246 781.808,647.6 986.162,851.954 1190.52,647.6 Z"
   style="fill:#bbbcc1"
   id="path828" />
        </g><g
   id="g834">
            <path
   d="M 1226.9,683.6 1022.55,887.954 1226.9,1092.31 1431.26,887.954 Z"
   style="fill:#bbbcc1"
   id="path832" />
        </g><g
   id="g838">
            <path
   d="M 1705.9,683.6 1501.55,887.954 1705.9,1092.31 1910.26,887.954 Z"
   style="fill:#bbbcc1"
   id="path836" />
        </g><g
   id="g842">
            <path
   d="m 2184.61,683.6 -204.35,204.354 204.35,204.356 204.36,-204.356 z"
   style="fill:#bbbcc1"
   id="path840" />
        </g><g
   id="g846">
            <path
   d="M 1225.9,203 1021.55,407.354 1225.9,611.708 1430.26,407.354 Z"
   style="fill:#bbbcc1"
   id="path844" />
        </g><g
   id="g850">
            <path
   d="M 1705.9,203 1501.55,407.354 1705.9,611.708 1910.26,407.354 Z"
   style="fill:#bbbcc1"
   id="path848" />
        </g><g
   id="g854">
            <path
   d="m 2184.61,203 -204.35,204.354 204.35,204.354 204.36,-204.354 z"
   style="fill:#bbbcc1"
   id="path852" />
        </g><g
   id="g858">
            <path
   d="M 1465.54,443.246 1261.19,647.6 1465.54,851.954 1669.89,647.6 Z"
   style="fill:#bbbcc1"
   id="path856" />
        </g><g
   id="g862">
            <path
   d="M 1944.92,443.246 1740.57,647.6 1944.92,851.954 2149.27,647.6 Z"
   style="fill:#bbbcc1"
   id="path860" />
        </g><g
   id="g866">
            <path
   d="M 2424.3,443.246 2219.95,647.6 2424.3,851.954 2628.65,647.6 Z"
   style="fill:#bbbcc1"
   id="path864" />
        </g><g
   id="g870">
            <path
   d="M 2907.05,443.246 2702.7,647.6 2907.05,851.954 3111.41,647.6 Z"
   style="fill:#bbbcc1"
   id="path868" />
        </g><path
   d="M 3062.99,628.85 2675.7,628.8 2424.3,377.091 2184.61,618.03 1945.26,378.351 1465.54,860.914 1226.9,619.729 986.162,860.85 754.479,628.85 H 348.1 v 37.5 h 388.208 l 249.854,249 239.688,-238.595 239.69,238.547 479.38,-478.708 239.69,240.397 239.69,-240.391 230.38,229.7 408.31,0.05 z"
   style="fill:#fdd34f"
   id="path872" /><path
   d="M 3071.59,674.951 2651.12,674.9 c 0,0 -226.8,-226.138 -226.8,-226.138 L 2184.61,689.172 1944.91,448.761 1465.55,927.446 1225.85,688.889 986.158,927.488 732.754,674.95 H 339.5 v -54.7 h 418.545 l 228.116,228.429 240.769,-241.15 c 0,0 238.63,241.173 238.63,241.173 l 479.68,-482.535 239.36,239.681 239.69,-240.938 254.98,255.29 392.32,0.051 z M 3062.99,628.85 2675.7,628.8 2424.3,377.091 2184.61,618.03 1945.26,378.351 1465.54,860.914 1226.9,619.729 986.162,860.85 754.479,628.85 H 348.1 v 37.5 h 388.208 l 249.854,249 239.688,-238.595 239.69,238.547 479.38,-478.708 239.69,240.397 239.69,-240.391 230.38,229.7 408.31,0.05 z"
   style="fill:#000000"
   id="path874" /><g
   id="g878"
   style="fill:#000000">
            <rect
   x="252.10001"
   y="599.59998"
   width="96"
   height="96"
   style="fill:#000000"
   id="rect876" />
        </g><g
   id="g882"
   style="fill:#000000">
            <rect
   x="3062.99"
   y="599.59998"
   width="96"
   height="96"
   style="fill:#000000"
   id="rect880" />
        </g><g
   id="Text"
   style="fill:#ffffff">
        <path
   id="path37"
   d="m 3143.1,1487.8 c 8.14,-21.48 28.83,-35.77 51.81,-35.77 28.2,0 52.12,21.53 55.09,49.57 v 11.9 c -3.14,27.94 -27.04,49.3 -55.15,49.3 -17.72,0 -34.41,-8.48 -44.85,-22.8 -11.04,-15.02 -13.75,-34.65 -7.2,-52.1 m 42.6,-23.8 c -20.54,4.15 -35.44,22.37 -35.44,43.32 0,24.25 19.95,44.2 44.2,44.2 13.83,0 26.89,-6.49 35.24,-17.52 5.81,-7.68 8.96,-17.05 8.96,-26.68 0,-24.24 -19.95,-44.2 -44.2,-44.2 -2.94,0 -5.88,0.3 -8.76,0.88 z"
   style="fill:#ffffff;fill-rule:nonzero" />
        <path
   id="path39"
   d="m 335.1,1455.6 h 120 v 340 h -120 c 0.133,-113.47 0.133,-226.8 0,-340 z"
   style="fill:#ffffff;fill-rule:nonzero" />
        <path
   id="path41"
   d="m 1073.9,1455.5 h 254.8 v 72.2 h -135.3 v 59.4 h 124.1 v 71.7 h -124 v 64.5 h 137.6 v 71.7 h -257.2 c -0.07,-113.07 -0.07,-226.23 0,-339.5 z"
   style="fill:#ffffff;fill-rule:nonzero" />
        <path
   id="path43"
   d="m 1915,1455.6 h 331.9 v 85.6 h -106.4 v 254.1 h -119.1 v -254.1 h -106.3 c -0.1,-28.6 0,-57.1 -0.1,-85.6 z"
   style="fill:#ffffff;fill-rule:nonzero" />
        <path
   id="path45"
   d="M 2842.5,1455.5 H 3091 v 72.2 h -128.9 v 61 h 121.3 v 72.1 H 2962.1 V 1795 h -119.6 z"
   style="fill:#ffffff;fill-rule:nonzero" />
        <path
   id="path47"
   d="m 3170,1477.8 h 30.8 c 0.35,-0.02 0.69,-0.03 1.04,-0.03 8.94,0 16.3,7.35 16.3,16.3 0,1.96 -0.35,3.9 -1.04,5.73 -2.26,6.32 -8.4,10.46 -15.1,10.2 6.6,3 10,10 13.2,15.7 2,3.6 4.4,7 6.1,10.8 h -15.1 c -3.36,-8.03 -8.06,-15.44 -13.9,-21.9 -2.96,-1.91 -6.52,-2.66 -10,-2.1 v 24 c -4.13,0.25 -8.27,0.25 -12.4,0 v -58.8 m 12.5,9.5 v 15.6 c 6.27,0.59 12.59,0.12 18.7,-1.4 2.45,-1.21 4,-3.72 4,-6.45 0,-2.44 -1.25,-4.73 -3.3,-6.05 -6.35,-1.72 -12.96,-2.26 -19.5,-1.6 z"
   style="fill:#ffffff;fill-rule:nonzero" />
    </g>
</svg>
