<?xml version="1.0" encoding="UTF-8" standalone="no"?>
<svg
   width="242"
   height="91"
   viewBox="0 0 242 91"
   fill="none"
   version="1.1"
   id="svg1388"
   sodipodi:docname="logo-pt-white.svg"
   inkscape:version="1.2-dev (9ee32be, 2021-06-19)"
   xmlns:inkscape="http://www.inkscape.org/namespaces/inkscape"
   xmlns:sodipodi="http://sodipodi.sourceforge.net/DTD/sodipodi-0.dtd"
   xmlns="http://www.w3.org/2000/svg"
   xmlns:svg="http://www.w3.org/2000/svg">
  <sodipodi:namedview
     id="namedview1390"
     pagecolor="#ffffff"
     bordercolor="#666666"
     borderopacity="1.0"
     inkscape:pageshadow="2"
     inkscape:pageopacity="0.0"
     inkscape:pagecheckerboard="0"
     showgrid="false"
     inkscape:zoom="3.1652893"
     inkscape:cx="121"
     inkscape:cy="45.651436"
     inkscape:window-width="1511"
     inkscape:window-height="869"
     inkscape:window-x="0"
     inkscape:window-y="38"
     inkscape:window-maximized="0"
     inkscape:current-layer="svg1388" />
  <path
     d="m 151.543,30.6343 c 2.204,0 3.807,0.4427 4.849,1.328 1.042,0.8854 1.563,2.1731 1.563,3.7829 0,0.7243 -0.121,1.4487 -0.361,2.0926 -0.241,0.6841 -0.601,1.2476 -1.122,1.811 -0.521,0.5231 -1.202,0.9658 -2.044,1.2475 -0.841,0.3219 -1.883,0.4829 -3.125,0.4829 h -1.683 v 6.278 h -3.085 V 30.6343 Z m -0.16,2.5353 h -1.763 v 5.634 h 1.402 c 0.802,0 1.483,-0.0804 2.044,-0.2817 0.561,-0.2012 1.002,-0.5231 1.322,-0.9255 0.281,-0.4427 0.441,-1.0061 0.441,-1.6903 0,-0.8853 -0.28,-1.5694 -0.841,-2.0121 -0.521,-0.4829 -1.403,-0.7244 -2.605,-0.7244 z"
     fill="#000000"
     id="path1353"
     style="fill:#ffffff" />
  <path
     d="m 174.744,47.6572 h -3.046 v -7.5658 h -7.453 v 7.5658 H 161.2 V 30.6343 h 3.045 v 6.8816 h 7.453 v -6.8816 h 3.046 z"
     fill="#000000"
     id="path1355"
     style="fill:#ffffff" />
  <path
     d="m 184.561,38.2 3.846,-7.5657 h 3.286 l -5.61,10.3827 v 6.6402 h -3.045 v -6.5194 l -5.61,-10.5035 h 3.326 z"
     fill="#000000"
     id="path1357"
     style="fill:#ffffff" />
  <path
     d="m 203.754,42.989 c 0,1.0061 -0.24,1.8512 -0.721,2.6158 -0.481,0.7244 -1.202,1.2878 -2.123,1.6902 -0.922,0.4024 -2.044,0.6037 -3.326,0.6037 -0.601,0 -1.202,-0.0403 -1.763,-0.1208 -0.561,-0.0805 -1.082,-0.1609 -1.603,-0.3219 -0.481,-0.161 -0.962,-0.322 -1.403,-0.5232 v -2.8572 c 0.722,0.3219 1.483,0.6036 2.365,0.8853 0.841,0.2817 1.723,0.4024 2.604,0.4024 0.681,0 1.242,-0.0804 1.683,-0.2817 0.441,-0.2012 0.761,-0.4426 0.962,-0.7646 0.2,-0.3219 0.32,-0.6841 0.32,-1.1268 0,-0.4829 -0.12,-0.8854 -0.4,-1.2073 -0.281,-0.3219 -0.682,-0.6439 -1.203,-0.9256 -0.52,-0.2817 -1.162,-0.6036 -1.963,-0.8853 -0.521,-0.2415 -1.042,-0.483 -1.523,-0.7647 -0.48,-0.2817 -0.961,-0.6036 -1.322,-1.006 -0.401,-0.4025 -0.721,-0.8854 -0.962,-1.4086 -0.24,-0.5231 -0.36,-1.167 -0.36,-1.8914 0,-0.9658 0.24,-1.8109 0.681,-2.4951 0.481,-0.6841 1.122,-1.2475 1.963,-1.6097 0.842,-0.3622 1.844,-0.5634 2.966,-0.5634 0.881,0 1.763,0.0805 2.524,0.2817 0.801,0.2012 1.563,0.4427 2.364,0.8049 l -0.962,2.4548 c -0.681,-0.3219 -1.362,-0.5232 -2.003,-0.7244 -0.641,-0.1609 -1.322,-0.2817 -2.004,-0.2817 -0.521,0 -1.001,0.0805 -1.362,0.2415 -0.361,0.161 -0.681,0.4024 -0.841,0.6841 -0.201,0.322 -0.281,0.6439 -0.281,1.0463 0,0.4427 0.12,0.8452 0.361,1.1671 0.24,0.3219 0.601,0.6036 1.122,0.8853 0.48,0.2818 1.162,0.6037 1.923,0.9256 0.922,0.4025 1.683,0.8049 2.324,1.2476 0.641,0.4427 1.122,0.9256 1.483,1.5292 0.32,0.6842 0.48,1.4085 0.48,2.2939 z"
     fill="#000000"
     id="path1359"
     style="fill:#ffffff" />
  <path
     d="m 213.17,47.6572 h -7.132 v -1.7305 l 2.044,-0.7646 V 33.1696 l -2.044,-0.8049 v -1.7304 h 7.132 v 1.7304 l -2.043,0.8049 v 11.9925 l 2.043,0.7646 z"
     fill="#000000"
     id="path1361"
     style="fill:#ffffff" />
  <path
     d="m 223.509,33.0086 c -0.762,0 -1.443,0.1207 -2.084,0.4024 -0.601,0.2817 -1.122,0.6842 -1.563,1.2073 -0.44,0.5232 -0.761,1.2073 -1.001,1.9719 -0.241,0.7647 -0.361,1.6098 -0.361,2.5756 0,1.2878 0.2,2.3743 0.561,3.2999 0.361,0.9256 0.922,1.6098 1.683,2.0927 0.761,0.4829 1.683,0.7244 2.805,0.7244 0.761,0 1.442,-0.0805 2.123,-0.2415 0.682,-0.161 1.323,-0.3622 2.004,-0.5634 v 2.6158 c -0.681,0.2817 -1.362,0.4829 -2.084,0.6037 -0.721,0.1207 -1.522,0.2012 -2.444,0.2012 -1.763,0 -3.206,-0.3622 -4.368,-1.0866 -1.162,-0.7244 -2.043,-1.7304 -2.604,-3.0585 -0.561,-1.328 -0.842,-2.8572 -0.842,-4.6279 0,-1.2878 0.161,-2.4549 0.521,-3.5414 0.361,-1.0464 0.882,-1.972 1.563,-2.7768 0.681,-0.8049 1.563,-1.4085 2.565,-1.811 1.001,-0.4024 2.163,-0.6439 3.486,-0.6439 0.841,0 1.723,0.0805 2.564,0.2817 0.842,0.2013 1.643,0.4427 2.324,0.8049 l -1.042,2.4951 c -0.561,-0.2817 -1.162,-0.4829 -1.803,-0.6842 -0.561,-0.1609 -1.242,-0.2414 -2.003,-0.2414 z"
     fill="#000000"
     id="path1363"
     style="fill:#ffffff" />
  <path
     d="m 241.219,42.989 c 0,1.0061 -0.24,1.8512 -0.721,2.6158 -0.481,0.7244 -1.202,1.2878 -2.124,1.6902 -0.921,0.4024 -2.043,0.6037 -3.325,0.6037 -0.601,0 -1.203,-0.0403 -1.764,-0.1208 -0.56,-0.0805 -1.081,-0.1609 -1.602,-0.3219 -0.481,-0.161 -0.962,-0.322 -1.403,-0.5232 v -2.8572 c 0.722,0.3219 1.483,0.6036 2.364,0.8853 0.842,0.2817 1.723,0.4024 2.605,0.4024 0.681,0 1.242,-0.0804 1.683,-0.2817 0.441,-0.2012 0.761,-0.4426 0.962,-0.7646 0.2,-0.3219 0.32,-0.6841 0.32,-1.1268 0,-0.4829 -0.12,-0.8854 -0.401,-1.2073 -0.28,-0.3219 -0.681,-0.6439 -1.202,-0.9256 -0.521,-0.2817 -1.162,-0.6036 -1.963,-0.8853 -0.521,-0.2415 -1.042,-0.483 -1.523,-0.7647 -0.481,-0.2817 -0.961,-0.6036 -1.322,-1.006 -0.401,-0.4025 -0.721,-0.8854 -0.962,-1.4086 -0.24,-0.5231 -0.36,-1.167 -0.36,-1.8914 0,-0.9658 0.24,-1.8109 0.681,-2.4951 0.481,-0.6841 1.122,-1.2475 1.963,-1.6097 0.842,-0.3622 1.843,-0.5634 2.965,-0.5634 0.922,0 1.763,0.0805 2.525,0.2817 0.801,0.2012 1.562,0.4427 2.364,0.8049 l -0.962,2.4548 c -0.681,-0.3219 -1.362,-0.5232 -2.003,-0.7244 -0.641,-0.1609 -1.323,-0.2817 -2.004,-0.2817 -0.521,0 -1.002,0.0805 -1.362,0.2415 -0.361,0.161 -0.681,0.4024 -0.842,0.6841 -0.2,0.322 -0.28,0.6439 -0.28,1.0463 0,0.4427 0.12,0.8452 0.361,1.1671 0.24,0.3219 0.601,0.6036 1.121,0.8853 0.481,0.2818 1.163,0.6037 1.924,0.9256 0.921,0.4025 1.683,0.8049 2.324,1.2476 0.641,0.4427 1.122,0.9256 1.482,1.5292 0.281,0.6842 0.481,1.4085 0.481,2.2939 z"
     fill="#000000"
     id="path1365"
     style="fill:#ffffff" />
  <path
     d="m 153.908,71.601 h -2.845 V 57.1939 h -4.568 v -2.6158 h 11.981 v 2.6158 h -4.568 z"
     fill="#000000"
     id="path1367"
     style="fill:#ffffff" />
  <path
     d="m 174.664,63.0694 c 0,1.328 -0.16,2.4951 -0.441,3.5816 -0.321,1.0866 -0.761,2.0122 -1.402,2.7768 -0.601,0.7647 -1.403,1.3683 -2.324,1.7707 -0.922,0.4025 -2.044,0.6037 -3.286,0.6037 -1.282,0 -2.404,-0.2012 -3.366,-0.6439 -0.922,-0.4024 -1.723,-1.0061 -2.324,-1.7707 -0.601,-0.7646 -1.082,-1.6902 -1.402,-2.7768 -0.321,-1.0866 -0.441,-2.2939 -0.441,-3.5816 0,-1.7305 0.28,-3.2597 0.801,-4.5878 0.561,-1.328 1.363,-2.3341 2.484,-3.0584 1.122,-0.7244 2.525,-1.0866 4.248,-1.0866 1.683,0 3.045,0.3622 4.167,1.0866 1.122,0.7243 1.923,1.7304 2.484,3.0584 0.561,1.3281 0.802,2.8975 0.802,4.628 z m -11.941,0 c 0,1.2878 0.16,2.3744 0.481,3.2999 0.32,0.9256 0.801,1.6098 1.482,2.1329 0.682,0.483 1.523,0.7244 2.565,0.7244 1.042,0 1.883,-0.2414 2.564,-0.7244 0.641,-0.4829 1.122,-1.2073 1.443,-2.1329 0.32,-0.9255 0.441,-2.0121 0.441,-3.2999 0,-1.9317 -0.361,-3.4207 -1.042,-4.5072 -0.681,-1.0866 -1.803,-1.65 -3.366,-1.65 -1.042,0 -1.883,0.2415 -2.564,0.7244 -0.682,0.4829 -1.163,1.2073 -1.483,2.0926 -0.401,0.9659 -0.521,2.0524 -0.521,3.3402 z"
     fill="#000000"
     id="path1369"
     style="fill:#ffffff" />
  <path
     d="m 191.012,62.8682 c 0,1.9317 -0.32,3.5414 -1.001,4.8292 -0.682,1.2878 -1.643,2.2939 -2.885,2.9378 -1.243,0.6439 -2.725,0.9658 -4.448,0.9658 H 177.95 V 54.5781 h 5.169 c 1.643,0 3.045,0.322 4.247,0.9659 1.202,0.6439 2.084,1.5694 2.725,2.7767 0.601,1.2073 0.921,2.7366 0.921,4.5475 z m -3.005,0.0805 c 0,-1.328 -0.2,-2.4146 -0.601,-3.2597 -0.401,-0.8451 -0.962,-1.489 -1.723,-1.9317 -0.761,-0.4024 -1.683,-0.6439 -2.765,-0.6439 h -2.083 v 11.8718 h 1.683 c 1.843,0 3.205,-0.5232 4.087,-1.5292 0.961,-0.9256 1.402,-2.4549 1.402,-4.5073 z"
     fill="#000000"
     id="path1371"
     style="fill:#ffffff" />
  <path
     d="m 203.795,71.6004 -1.483,-4.467 h -5.89 l -1.483,4.467 h -3.045 l 5.85,-17.1033 h 3.286 l 5.85,17.1033 z m -3.566,-11.3083 c -0.041,-0.2012 -0.161,-0.4829 -0.281,-0.9256 -0.12,-0.4024 -0.24,-0.8451 -0.361,-1.328 -0.12,-0.4427 -0.2,-0.8049 -0.24,-1.0866 -0.08,0.3622 -0.16,0.7244 -0.24,1.1671 -0.081,0.4024 -0.201,0.8048 -0.281,1.2073 -0.08,0.3621 -0.2,0.6841 -0.24,0.9658 l -1.403,4.2255 h 4.408 z"
     fill="#000000"
     id="path1373"
     style="fill:#ffffff" />
  <path
     d="m 212.29,62.1839 3.606,-7.5657 h 3.125 l -5.289,10.3827 v 6.6401 h -2.885 v -6.5194 l -5.289,-10.5034 h 3.166 z"
     fill="#000000"
     id="path1375"
     style="fill:#ffffff" />
  <path
     d="M 0,90.7972 V 0.25 h 43.3554 c 5.77,0 10.4181,0.684134 14.0243,2.0524 3.5662,1.36827 6.3311,3.34019 8.2544,5.91575 1.9233,2.57555 3.2456,5.75475 3.9268,9.53765 0.6812,3.7829 1.0418,8.1291 1.0418,13.0388 0,4.467 -0.3205,8.5718 -1.0017,12.3144 -0.6411,3.7426 -1.9234,6.9621 -3.8066,9.6584 -1.8833,2.7365 -4.6481,4.8292 -8.3345,6.3182 -3.6864,1.489 -8.5349,2.2536 -14.5453,2.2536 H 22.7195 v 29.458 z M 22.7996,43.9541 h 11.3798 c 3.1255,0 5.6098,-0.161 7.4129,-0.5231 1.8031,-0.322 3.1254,-0.9659 4.007,-1.811 0.8815,-0.8853 1.4425,-2.1329 1.723,-3.7828 0.2805,-1.65 0.4007,-3.8232 0.4007,-6.5194 0,-2.6963 -0.1202,-4.8695 -0.3206,-6.5597 -0.2003,-1.6902 -0.7613,-2.978 -1.6429,-3.8633 -0.8815,-0.8854 -2.2038,-1.489 -3.9268,-1.7707 -1.763,-0.2817 -4.1672,-0.4427 -7.2125,-0.4427 H 22.8397 v 25.2727 z"
     fill="#f1b232"
     id="path1377" />
  <path
     d="M 98.8518,90.7975 V 18.6817 H 74.209 V 0.290527 h 72.205 V 18.6817 h -24.763 v 72.1158 z"
     fill="#f1b232"
     id="path1379" />
  <defs
     id="defs1386">
    <clipPath
       id="clip0_2334_8595">
      <rect
         width="242"
         height="90.75"
         fill="white"
         transform="translate(0 0.25)"
         id="rect1383" />
    </clipPath>
  </defs>
</svg>
