<?xml version="1.0" encoding="UTF-8" standalone="no"?>
<svg
   width="363px"
   height="90px"
   viewBox="0 0 363 90"
   version="1.1"
   id="svg883"
   sodipodi:docname="logo-loc-new-branding-dark.svg"
   inkscape:version="1.2-dev (9ee32be, 2021-06-19)"
   xmlns:inkscape="http://www.inkscape.org/namespaces/inkscape"
   xmlns:sodipodi="http://sodipodi.sourceforge.net/DTD/sodipodi-0.dtd"
   xmlns="http://www.w3.org/2000/svg"
   xmlns:svg="http://www.w3.org/2000/svg"
   xmlns:rdf="http://www.w3.org/1999/02/22-rdf-syntax-ns#"
   xmlns:cc="http://creativecommons.org/ns#"
   xmlns:dc="http://purl.org/dc/elements/1.1/">
  <sodipodi:namedview
     id="namedview885"
     pagecolor="#ffffff"
     bordercolor="#666666"
     borderopacity="1.0"
     inkscape:pageshadow="2"
     inkscape:pageopacity="0.0"
     inkscape:pagecheckerboard="0"
     showgrid="false"
     inkscape:zoom="3.1790634"
     inkscape:cx="73.449307"
     inkscape:cy="48.284662"
     inkscape:window-width="2560"
     inkscape:window-height="1387"
     inkscape:window-x="0"
     inkscape:window-y="25"
     inkscape:window-maximized="0"
     inkscape:current-layer="svg883" />
  <!-- Generator: Sketch 50.2 (55047) - http://www.bohemiancoding.com/sketch -->
  <title
     id="title824">Logo</title>
  <desc
     id="desc826">Created with Sketch.</desc>
  <defs
     id="defs828" />
  <g
     id="Logo"
     style="fill:none;fill-rule:evenodd;stroke:none;stroke-width:1">
    <g
       id="Group-3">
      <g
         id="Group-2"
         fill-rule="nonzero">
        <g
           id="Group"
           fill="#000000">
          <polygon
             id="Shape"
             points="0.48761194,89.566265 0.48761194,0 15.657761,0 15.766119,75.361446 25.41,75.361446 25.301642,89.566265 "
             style="fill:#ffffff" />
          <polygon
             id="polygon831"
             points="44.101791,89.512048 28.823284,89.512048 28.823284,0 44.101791,0 "
             style="fill:#ffffff" />
          <path
             d="m 47.948507,0 h 23.080299 c 6.122239,0 10.131492,3.1445783 10.131492,11.331325 v 20.222892 c 0,6.018072 -3.955074,8.783132 -5.905522,9.379518 2.383881,0.596386 7.097463,3.253012 7.097463,10.463855 v 24.560241 c 0,9.054217 -3.846717,13.608434 -11.431791,13.608434 H 47.948507 Z m 15.278508,11.277108 v 25.536145 h 1.083582 c 1.19194,0 1.78791,-0.704819 1.78791,-2.277108 V 13.445783 c 0,-1.572289 -0.216716,-2.168675 -1.78791,-2.168675 z m 0,36.596386 v 29.981928 h 1.462836 c 1.571194,0 1.78791,-0.70482 1.78791,-2.277109 v -25.26506 c 0,-1.789157 -0.379254,-2.385542 -1.78791,-2.385542 h -1.462836 z"
             id="path833"
             style="fill:#ffffff" />
          <path
             d="M 100.98985,89.512048 H 85.711343 V 0 h 23.676267 c 5.30955,0 9.48135,3.3614458 9.48135,10.73494 v 21.090361 c 0,6.126506 -2.8715,8.566265 -5.41792,9.650603 2.54642,1.084337 5.63463,3.63253 5.63463,8.29518 v 35.512048 c 0,1.789157 0.21672,3.144579 0.70433,3.957832 v 0.379518 h -15.06179 c -0.59597,-0.86747 -0.97523,-2.060241 -0.97523,-3.740964 V 52.319277 c 0,-1.301205 -0.21671,-2.060241 -1.67955,-2.060241 h -1.19194 v 39.253012 z m 0,-52.102409 h 1.19194 c 1.08358,0 1.67955,-0.70482 1.67955,-2.060241 V 13.337349 c 0,-1.463855 -0.21671,-2.060241 -1.57119,-2.060241 h -1.3003 z"
             id="path835"
             style="fill:#ffffff" />
          <path
             d="m 141.2991,73.409639 h -5.14701 l -0.86687,16.156626 H 122.17388 L 129.59642,0 H 148.83 l 8.07269,89.566265 h -14.7909 z m -2.54641,-47.168675 -1.78791,34.048193 h 3.63 z"
             id="path837"
             style="fill:#ffffff" />
          <path
             d="m 175.21522,89.512048 h -15.2785 V 0 h 23.73044 c 5.30956,0 9.48135,3.3614458 9.48135,10.73494 v 21.090361 c 0,6.126506 -2.8715,8.566265 -5.41791,9.650603 2.54641,1.084337 5.63462,3.63253 5.63462,8.29518 v 35.512048 c 0,1.789157 0.21672,3.144579 0.70433,3.957832 v 0.379518 h -15.06179 c -0.59597,-0.86747 -0.97522,-2.060241 -0.97522,-3.740964 V 52.319277 c 0,-1.301205 -0.21672,-2.060241 -1.67956,-2.060241 h -1.19194 v 39.253012 z m 0,-52.102409 h 1.19194 c 1.08359,0 1.67956,-0.70482 1.67956,-2.060241 V 13.337349 c 0,-1.463855 -0.21672,-2.060241 -1.5712,-2.060241 h -1.3003 z"
             id="path839"
             style="fill:#ffffff" />
          <polygon
             id="polygon841"
             points="214.92851,0 228.52746,0 219.47955,54.271084 219.47955,89.566265 204.3094,89.566265 204.3094,54.271084 204.36358,54.271084 194.50298,0 209.67313,0 212.32791,30.957831 "
             style="fill:#ffffff" />
        </g>
        <polygon
           id="polygon844"
           fill="#f05129"
           points="236.54597,68.53012 236.54597,72.216868 226.52284,72.216868 226.52284,57.469879 230.36955,57.469879 230.36955,68.53012 " />
        <polygon
           id="polygon846"
           fill="#f05129"
           points="238.11716,72.216868 238.11716,57.469879 241.96388,57.469879 241.96388,72.216868 " />
        <path
           d="M 244.18522,72.216868 V 57.469879 h 5.74299 c 4.00925,0 5.74298,1.355422 5.74298,3.849398 0,1.73494 -0.65015,2.76506 -1.78791,3.361446 1.35448,0.542169 2.16717,1.518072 2.16717,3.307229 0,2.76506 -1.73373,4.283132 -5.47209,4.283132 h -6.39314 z M 247.8694,60.39759 v 2.819277 h 2.22135 c 1.30029,0 1.95044,-0.433735 1.95044,-1.463855 0,-0.921687 -0.54179,-1.355422 -1.95044,-1.355422 z m 0,5.692771 v 2.927711 h 2.00463 c 1.78791,0 2.3297,-0.487952 2.3297,-1.463855 0,-0.975904 -0.59597,-1.463856 -2.3297,-1.463856 z"
           id="path848"
           fill="#f05129" />
        <path
           d="m 261.19746,67.283132 v 4.933736 h -3.68418 V 57.469879 h 5.9597 c 4.1718,0 5.79717,1.843374 5.79717,4.608434 0,1.897591 -0.75851,3.036145 -2.11299,3.686747 1.19194,0.487952 1.78791,1.518072 1.78791,3.361446 v 2.331325 c 0,0.379518 0.10836,0.650603 0.32508,0.813253 h -3.84672 c -0.21671,-0.16265 -0.32507,-0.487952 -0.32507,-0.867469 V 69.23494 c 0,-1.463856 -0.54179,-1.897591 -2.05881,-1.897591 h -1.84209 z m 0,-6.668674 v 3.415662 h 2.16717 c 1.35447,0 2.0588,-0.650602 2.0588,-1.734939 0,-1.030121 -0.59597,-1.680723 -2.0588,-1.680723 z"
           id="path850"
           fill="#f05129" />
        <path
           d="m 279.34746,69.614458 h -4.9303 l -0.81268,2.60241 h -3.79254 l 5.14701,-14.746989 h 3.84672 l 5.2012,14.746989 h -3.79254 z m -2.49224,-7.861446 -1.46283,4.825301 h 2.97985 z"
           id="path852"
           fill="#f05129" />
        <path
           d="m 288.72045,67.283132 v 4.933736 h -3.73836 V 57.469879 h 5.9597 c 4.17179,0 5.79716,1.843374 5.79716,4.608434 0,1.897591 -0.7585,3.036145 -2.11298,3.686747 1.19194,0.487952 1.78791,1.518072 1.78791,3.361446 v 2.331325 c 0,0.379518 0.10836,0.650603 0.32507,0.813253 h -3.84671 c -0.21672,-0.16265 -0.32508,-0.487952 -0.32508,-0.867469 V 69.23494 c 0,-1.463856 -0.54179,-1.897591 -2.0588,-1.897591 h -1.78791 z m 0,-6.668674 v 3.415662 h 2.16716 c 1.35448,0 2.05881,-0.650602 2.05881,-1.734939 0,-1.030121 -0.59597,-1.680723 -2.05881,-1.680723 z"
           id="path854"
           fill="#f05129" />
        <polygon
           id="polygon856"
           fill="#f05129"
           points="303.83642,62.783133 306.49119,57.469879 310.44627,57.469879 305.73269,66.578313 305.73269,72.271084 301.83179,72.271084 301.83179,72.216868 301.83179,66.46988 297.28075,57.469879 301.29,57.469879 " />
        <path
           d="m 226.0894,83.006024 v -1.572289 c 0,-4.608434 2.54642,-6.939759 6.39314,-6.939759 3.73836,0 6.39313,2.277108 6.39313,6.939759 v 1.572289 c 0,4.662651 -2.6006,6.885542 -6.39313,6.885542 -4.06344,0 -6.39314,-2.168674 -6.39314,-6.885542 z m 8.8312,-0.216867 v -1.192772 c 0,-2.493975 -0.75851,-3.740963 -2.43806,-3.740963 -1.73373,0 -2.43806,1.301205 -2.43806,3.686747 v 1.192771 c 0,2.439759 0.70433,3.686747 2.43806,3.686747 1.67955,0.05422 2.43806,-1.138555 2.43806,-3.63253 z"
           id="path858"
           fill="#f05129" />
        <polygon
           id="polygon860"
           fill="#f05129"
           points="250.57836,74.819277 250.57836,78.180723 244.29358,78.180723 244.29358,81.054217 250.30746,81.054217 250.30746,84.415663 244.29358,84.415663 244.29358,84.361446 244.29358,89.566265 240.6094,89.566265 240.6094,74.819277 " />
        <path
           d="m 255.94209,83.222892 v -1.897591 c 0,-4.554217 2.49224,-6.831325 6.44731,-6.831325 3.84672,0 6.12224,1.89759 6.33896,5.746988 v 0.433735 h -3.95508 v -0.216868 c -0.10836,-1.734939 -0.7585,-2.602409 -2.3297,-2.602409 -1.73373,0 -2.49224,1.192771 -2.49224,3.686747 v 1.301204 c 0,2.385543 0.81269,3.524097 2.49224,3.524097 1.5712,0 2.22134,-0.921687 2.38388,-2.710843 v -0.271085 h 4.00926 v 0.379518 c -0.16254,4.174699 -2.43806,6.072289 -6.5015,6.072289 -4.17179,0.05422 -6.39313,-2.114457 -6.39313,-6.614457 z"
           id="path862"
           fill="#f05129" />
        <path
           d="m 269.9203,83.006024 v -1.572289 c 0,-4.608434 2.54642,-6.939759 6.39313,-6.939759 3.73836,0 6.39314,2.277108 6.39314,6.939759 v 1.572289 c 0,4.662651 -2.6006,6.885542 -6.39314,6.885542 -4.06343,0 -6.39313,-2.168674 -6.39313,-6.885542 z m 8.83119,-0.216867 v -1.192772 c 0,-2.493975 -0.75851,-3.740963 -2.43806,-3.740963 -1.73373,0 -2.43806,1.301205 -2.43806,3.686747 v 1.192771 c 0,2.439759 0.70433,3.686747 2.43806,3.686747 1.67955,0.05422 2.43806,-1.138555 2.43806,-3.63253 z"
           id="path864"
           fill="#f05129" />
        <polygon
           id="polygon866"
           fill="#f05129"
           points="287.96194,74.819277 293.37985,83.548193 293.37985,74.819277 296.90149,74.819277 296.90149,89.566265 293.48821,89.566265 287.96194,80.728916 287.96194,89.566265 284.4403,89.566265 284.4403,74.819277 " />
        <path
           d="m 307.79149,86.150602 c -0.32507,2.060241 -1.51701,3.740964 -4.11761,3.740964 -3.41328,0 -4.98448,-2.060241 -4.98448,-6.777108 v -1.789157 c 0,-4.608433 2.49224,-6.831325 6.5015,-6.831325 3.84671,0 5.90552,1.951807 5.9597,5.584337 v 0.108434 h -3.84672 c -0.0542,-1.463855 -0.65015,-2.331325 -2.22134,-2.331325 -1.78791,0 -2.54642,1.138554 -2.54642,3.63253 v 1.463855 c 0,2.710844 0.75851,3.63253 2.49224,3.63253 1.46283,0 2.22134,-1.03012 2.3297,-2.331325 h -2.6006 v -2.548193 h 6.33896 v 7.915663 h -2.97985 z"
           id="path868"
           fill="#f05129" />
        <path
           d="m 316.78522,84.63253 v 4.933735 h -3.68418 V 74.819277 h 5.95971 c 4.17179,0 5.79716,1.843374 5.79716,4.608434 0,1.89759 -0.75851,3.036144 -2.11298,3.686747 1.19194,0.487952 1.78791,1.518072 1.78791,3.361446 v 2.331325 c 0,0.379518 0.10835,0.650602 0.32507,0.813253 h -3.84672 c -0.21671,-0.162651 -0.32507,-0.487952 -0.32507,-0.86747 v -2.168675 c 0,-1.463855 -0.54179,-1.89759 -2.05881,-1.89759 h -1.84209 z m 0,-6.668675 v 3.415663 h 2.16717 c 1.35448,0 2.0588,-0.650602 2.0588,-1.73494 0,-1.03012 -0.59597,-1.680723 -2.0588,-1.680723 z"
           id="path870"
           fill="#f05129" />
        <polygon
           id="polygon872"
           fill="#f05129"
           points="336.93985,78.018072 330.27582,78.018072 330.27582,80.512048 336.2897,80.512048 336.2897,83.76506 330.27582,83.76506 330.27582,86.259036 337.15657,86.259036 337.15657,89.566265 326.59164,89.566265 326.59164,74.819277 336.93985,74.819277 " />
        <path
           d="m 337.96925,84.46988 h 3.95508 v 0.05422 c 0,1.409639 0.70433,2.168675 2.3297,2.168675 1.35448,0 1.95045,-0.650602 1.95045,-1.463855 0,-1.192771 -1.51702,-1.409639 -3.19657,-1.789157 -2.22134,-0.487952 -4.71358,-1.192771 -4.71358,-4.391566 0,-2.60241 1.89627,-4.5 5.63462,-4.5 3.79254,0 5.74299,1.734939 5.74299,4.825301 h -3.79254 c -0.0542,-1.246988 -0.65015,-1.789157 -2.0588,-1.789157 -1.3003,0 -1.78791,0.596386 -1.78791,1.355422 0,1.084337 1.40865,1.301205 3.08821,1.680723 2.22134,0.487952 4.76776,1.246988 4.82194,4.5 0,2.873494 -2.00463,4.825301 -5.85135,4.825301 -4.55104,-0.05422 -6.06806,-2.006024 -6.12224,-5.475903 z"
           id="path874"
           fill="#f05129" />
        <path
           d="m 350.59298,84.46988 h 3.95508 v 0.05422 c 0,1.409639 0.70433,2.168675 2.3297,2.168675 1.35448,0 1.95045,-0.650602 1.95045,-1.463855 0,-1.192771 -1.51702,-1.409639 -3.19657,-1.789157 -2.22134,-0.487952 -4.71358,-1.192771 -4.71358,-4.391566 0,-2.60241 1.89627,-4.5 5.63463,-4.5 3.79253,0 5.74298,1.734939 5.74298,4.825301 h -3.79254 c -0.0542,-1.246988 -0.65015,-1.789157 -2.0588,-1.789157 -1.3003,0 -1.78791,0.596386 -1.78791,1.355422 0,1.084337 1.40865,1.301205 3.08821,1.680723 2.22134,0.487952 4.76776,1.246988 4.82194,4.5 0,2.873494 -2.00463,4.825301 -5.85135,4.825301 -4.55104,-0.05422 -6.06806,-2.006024 -6.12224,-5.475903 z"
           id="path876"
           fill="#f05129" />
      </g>
    </g>
  </g>
  <metadata
     id="metadata967">
    <rdf:RDF>
      <cc:Work
         rdf:about="">
        <dc:title>Logo</dc:title>
      </cc:Work>
    </rdf:RDF>
  </metadata>
</svg>
