<?xml version="1.0" encoding="UTF-8" standalone="no"?>
<svg
   height="500"
   version="1.2"
   width="500"
   id="svg25492"
   sodipodi:docname="MSRBot-Penguin-blue.svg"
   inkscape:version="1.2-dev (9ee32be, 2021-06-19)"
   xmlns:inkscape="http://www.inkscape.org/namespaces/inkscape"
   xmlns:sodipodi="http://sodipodi.sourceforge.net/DTD/sodipodi-0.dtd"
   xmlns="http://www.w3.org/2000/svg"
   xmlns:svg="http://www.w3.org/2000/svg">
  <sodipodi:namedview
     id="namedview25494"
     pagecolor="#ffffff"
     bordercolor="#666666"
     borderopacity="1.0"
     inkscape:pageshadow="2"
     inkscape:pageopacity="0.0"
     inkscape:pagecheckerboard="0"
     showgrid="false"
     inkscape:zoom="1"
     inkscape:cx="228.5"
     inkscape:cy="285"
     inkscape:window-width="1316"
     inkscape:window-height="866"
     inkscape:window-x="0"
     inkscape:window-y="38"
     inkscape:window-maximized="0"
     inkscape:current-layer="svg25492"
     showguides="false" />
  <defs
     id="defs824">
    <inkscape:path-effect
       effect="bend_path"
       id="path-effect26130"
       is_visible="true"
       lpeversion="1"
       bendpath="M 22.047241,400 H 777.95276"
       prop_scale="1"
       scale_y_rel="false"
       vertical="false"
       hide_knot="false" />
  </defs>
  <g
     id="g1576">
    <path
       id="rect939"
       style="fill:#1398b0;stroke-width:1.75033;stroke-linejoin:round"
       d="m 85,0 h 330 c 47.09,0 85,37.91 85,85 v 330 c 0,47.09 -37.91,85 -85,85 H 85 C 37.91,500 0,462.09 0,415 V 85 C 0,37.91 37.91,0 85,0 Z" />
    <g
       id="g1246">
      <path
         id="polygon18650"
         style="color:#000000;fill:#ffffff;fill-opacity:1;stroke-width:0.767325;-inkscape-stroke:none"
         d="m 179.1385,51.667117 c -16.21837,12.134916 -30.56836,26.786953 -39.67515,44.076124 -12.1073,21.240509 -15.25247,40.623529 -18.74641,63.481909 -1.99604,19.30461 0.2537,43.26146 -5.04953,60.8968 -3.67673,17.59525 -12.28184,35.68349 -19.484296,50.29538 -14.382551,32.46954 -24.580136,67.26948 -25.239166,102.13201 0.602086,6.40974 -0.27735,17.06861 3.752175,22.01545 16.925991,7.84178 35.515647,-23.74002 45.153907,-31.19577 0,0 2.59781,11.58395 4.47319,14.78204 7.95638,19.11163 18.92248,38.88246 33.90342,50.60673 l -15.14856,13.34802 c -16.09694,1.64117 -17.65186,1.63932 -20.34036,11.10528 -2.99916,7.17569 2.41058,15.83574 9.52029,16.35816 10.19219,1.89923 21.79942,0.27503 32.53735,0.8152 11.26127,-0.85246 24.0643,2.1351 33.82745,-2.44817 l 8.94879,-11.18536 c 29.31073,9.47681 60.52043,8.50541 84.8568,0 l 8.94879,11.18536 c 9.76314,4.58327 22.56618,1.59571 33.82746,2.44817 10.73792,-0.54017 22.34395,1.08403 32.53613,-0.8152 7.10971,-0.52242 12.52066,-9.18247 9.5215,-16.35816 -2.6885,-9.46596 -4.24462,-9.4641 -20.34156,-11.10528 l -15.14857,-13.34802 c 14.98094,-11.72426 25.94826,-31.4951 33.90462,-50.60673 1.87538,-3.19809 4.4732,-14.78204 4.4732,-14.78204 9.63825,7.45575 28.22792,39.03755 45.15391,31.19577 4.02952,-4.94684 3.15008,-15.60571 3.75217,-22.01545 -0.65903,-34.86253 -10.85661,-69.66247 -25.23916,-102.13201 -7.20245,-14.61189 -15.80757,-32.70013 -19.48431,-50.29538 -5.30322,-17.63534 -3.05349,-41.59219 -5.04952,-60.8968 -3.49395,-22.85838 -6.64032,-42.2414 -18.74762,-63.481909 -9.10679,-17.289171 -23.45558,-31.941208 -39.67395,-44.076124 -47.68649,-29.544544 -94.75179,-29.744304 -141.72299,0 z"
         sodipodi:nodetypes="ccccccccccccccccccccccccccccccccc" />
      <path
         id="path51662"
         style="fill:#1398b0;stroke-width:0.221734;stroke-linejoin:round"
         d="m 350.12146,140.35855 a 54.477861,52.802476 0 0 1 -54.47785,52.80247 54.477861,52.802476 0 0 1 -54.47786,-52.80247 54.477861,52.802476 0 0 1 54.47786,-52.80247 54.477861,52.802476 0 0 1 54.47785,52.80247 z" />
    </g>
  </g>
</svg>
