<?xml version="1.0" encoding="UTF-8" standalone="no"?>
<svg
   width="271"
   height="110"
   version="1.1"
   id="svg1098"
   sodipodi:docname="Chicago_un-press-logo-white.svg"
   inkscape:version="1.2-dev (9ee32be, 2021-06-19)"
   xmlns:inkscape="http://www.inkscape.org/namespaces/inkscape"
   xmlns:sodipodi="http://sodipodi.sourceforge.net/DTD/sodipodi-0.dtd"
   xmlns:xlink="http://www.w3.org/1999/xlink"
   xmlns="http://www.w3.org/2000/svg"
   xmlns:svg="http://www.w3.org/2000/svg">
  <sodipodi:namedview
     id="namedview1100"
     pagecolor="#ffffff"
     bordercolor="#666666"
     borderopacity="1.0"
     inkscape:pageshadow="2"
     inkscape:pageopacity="0.0"
     inkscape:pagecheckerboard="0"
     showgrid="false"
     inkscape:zoom="2.1070111"
     inkscape:cx="135.5"
     inkscape:cy="54.816988"
     inkscape:window-width="1316"
     inkscape:window-height="869"
     inkscape:window-x="0"
     inkscape:window-y="38"
     inkscape:window-maximized="0"
     inkscape:current-layer="svg1098" />
  <defs
     id="defs1051">
    <path
       id="A"
       d="M0 85.2h271V.2H0z" />
    <path
       id="B"
       d="M22.83 100.85h2.694c.71 0 .874-.34.874-.77 0-.843-.696-1.598-1.613-1.598-.83 0-1.79.65-1.954 2.368m4.797-.206c0 .34-.046.636-.105.828h-4.72c.03 1.822.977 2.783 2.397 2.783.947 0 1.525-.415 2.058-1.036l.356.282c-.55 1.05-1.496 1.717-2.843 1.717-1.998 0-3.3-1.377-3.3-3.642s1.555-3.774 3.404-3.774c1.54 0 2.754 1.052 2.754 2.843" />
    <path
       id="C"
       d="M77.722 104.654l-.06-1.628h.814l.282 1.29c.356.163.74.236 1.2.236 1.126 0 1.657-.458 1.657-1.125 0-.638-.443-.962-1.376-1.288l-.682-.253c-1.08-.4-1.79-.992-1.79-1.998 0-1.08.918-2.087 2.575-2.087.802 0 1.437.22 2.073.607l-.06 1.508h-.77l-.237-1.183c-.324-.163-.665-.253-1.02-.253-.904 0-1.376.4-1.376 1.007 0 .65.355.903 1.36 1.272l.46.163c1.48.548 2.042 1.243 2.042 2.176 0 1.125-.977 2.117-2.886 2.117-.83 0-1.482-.192-2.207-.563" />
    <path
       id="D"
       d="M84.67 95.225c0-.577.43-.948.992-.948.546 0 .99.37.99.948 0 .548-.444.948-.99.948-.563 0-.992-.4-.992-.948h0zm-.756 9.8v-.533l1.11-.208.03-2.368v-.696l-.044-1.866-1.183-.134v-.517l2.278-.903.222.148-.044 2.013v1.954l.03 2.368 1.036.208v.533h-3.435z" />
    <path
       id="E"
       d="M110.304 101.547c0-1.998-.726-3.065-1.998-3.065-1.29 0-1.984 1.067-1.984 3.065 0 1.983.696 3.004 1.984 3.004 1.272 0 1.998-1.02 1.998-3.004m-5.39 0c0-2.458 1.674-3.745 3.39-3.745 1.702 0 3.404 1.288 3.404 3.745 0 2.443-1.688 3.67-3.404 3.67-1.732 0-3.39-1.228-3.39-3.67" />
  </defs>
  <g
     transform="translate(0,0.111)"
     id="g1058"
     style="fill:none;fill-rule:evenodd">
    <mask
       id="F"
       fill="#ffffff">
      <use
         xlink:href="#A"
         id="use1053"
         x="0"
         y="0"
         width="100%"
         height="100%" />
    </mask>
    <path
       d="m 15.7,66.1 c 0,4.012 1.57,6.017 4.798,6.017 3.228,0 4.796,-2.005 4.796,-6.017 V 54.14 h 11.34 V 66.1 c 0,4.448 -1.57,8.1 -4.7,11.164 C 28.804,80.328 24.957,81.8 20.51,81.8 15.974,81.8 12.136,80.318 8.997,77.35 5.93,74.287 4.36,70.537 4.36,66.1 V 16.55 c 0,-4.448 1.57,-8.2 4.623,-11.164 3.14,-3.054 6.977,-4.536 11.514,-4.536 4.448,0 8.284,1.482 11.425,4.535 3.141,3.053 4.7,6.716 4.7,11.164 V 28.5 H 25.282 V 16.55 c 0,-4.013 -1.57,-6.018 -4.796,-6.018 -3.226,0 -4.786,2.004 -4.786,6.018 z M 64.798,2.332 h 11.34 V 80.83 H 64.798 V 48.122 h -8.72 V 80.83 H 44.738 V 2.332 h 11.34 V 37.22 h 8.72 z M 84.853,80.83 h 11.34 V 2.332 H 84.853 Z M 115.378,66.1 c 0,4.012 1.57,6.017 4.798,6.017 3.228,0 4.795,-2.005 4.795,-6.017 V 54.14 h 11.34 V 66.1 c 0,4.448 -1.57,8.1 -4.7,11.164 -3.13,3.064 -6.977,4.535 -11.425,4.535 -4.536,0 -8.374,-1.482 -11.513,-4.45 -3.053,-3.053 -4.623,-6.802 -4.623,-11.25 V 16.55 c 0,-4.448 1.57,-8.2 4.623,-11.164 3.13,-3.054 6.967,-4.536 11.503,-4.536 4.448,0 8.284,1.482 11.425,4.535 3.141,3.053 4.7,6.716 4.7,11.164 V 28.5 h -11.34 V 16.55 c 0,-4.013 -1.57,-6.018 -4.795,-6.018 -3.225,0 -4.798,2.005 -4.798,6.018 V 66.1 Z M 154.7,54.052 h 7.502 l -3.84,-26 -3.663,26 z m 8.895,9.77 H 153.567 L 150.95,80.83 h -10.902 l 13.703,-78.5 h 9.245 L 176.69,80.827 H 165.96 L 163.604,63.82 Z M 205.38,77.95 c -2.007,2.53 -4.972,3.838 -8.8,3.838 -9.855,0 -16.397,-5.93 -16.397,-15.7 v -49.54 c 0,-4.448 1.57,-8.2 4.623,-11.164 3.14,-3.054 6.98,-4.534 11.514,-4.534 4.448,0 8.286,1.482 11.425,4.535 3.139,3.053 4.7,6.716 4.7,11.164 v 11.95 h -11.34 v -11.95 c 0,-4.012 -1.57,-6.017 -4.796,-6.017 -3.226,0 -4.798,2.005 -4.798,6.017 v 49.54 c 0,4.013 1.657,6.018 5.06,6.018 3.228,0 4.798,-2.005 4.798,-6.018 v -15.35 h -4.798 v -10.03 h 16.136 v 40.12 h -5.93 l -1.395,-2.88 z m 35.23,-61.402 c 0,-4.012 -1.57,-6.017 -4.797,-6.017 -3.227,0 -4.797,2.005 -4.797,6.017 v 49.54 c 0,4.013 1.57,6.018 4.797,6.018 3.227,0 4.797,-2.005 4.797,-6.018 z m 11.34,49.54 c 0,4.448 -1.57,8.1 -4.7,11.164 -3.13,3.064 -6.977,4.535 -11.426,4.535 -4.535,0 -8.372,-1.482 -11.512,-4.448 -3.053,-2.966 -4.623,-6.715 -4.623,-11.25 V 16.55 c 0,-4.448 1.57,-8.197 4.623,-11.164 3.128,-3.053 6.966,-4.535 11.5,-4.535 4.45,0 8.286,1.482 11.426,4.535 3.14,3.053 4.7,6.716 4.7,11.164 v 49.54 z"
       mask="url(#F)"
       fill="#007396"
       id="path1056" />
  </g>
  <g
     fill="#000000"
     id="g1094"
     style="fill-rule:evenodd;fill:#ffffff">
    <path
       d="M 7.322,99.7 7.292,95.85 H 5.027 l -0.324,1.895 h -0.86 l 0.12,-2.636 h 8.112 l 0.12,2.636 H 11.337 L 11.011,95.85 H 8.743 l -0.03,3.85 v 0.725 l 0.03,3.82 1.5,0.163 v 0.607 h -4.47 v -0.607 l 1.5,-0.163 0.03,-3.82 V 99.7 Z m 12.558,0.83 v 1.376 l 0.03,2.37 1.036,0.207 v 0.533 H 17.5 v -0.533 l 1.08,-0.192 0.03,-2.385 v -1.257 c 0,-1.362 -0.34,-1.793 -1.214,-1.793 -0.724,0 -1.333,0.282 -2.088,0.962 v 2.088 l 0.03,2.37 1.02,0.207 v 0.533 h -3.433 v -0.533 l 1.108,-0.207 0.03,-2.37 V 95.408 L 12.85,95.26 v -0.517 l 2.265,-0.667 0.207,0.117 -0.06,2.103 v 2.872 c 0.724,-0.814 1.776,-1.376 2.7,-1.376 1.274,0 1.895,0.8 1.895,2.738"
       id="path1060"
       style="fill:#ffffff" />
    <use
       xlink:href="#B"
       id="use1062"
       x="0"
       y="0"
       width="100%"
       height="100%"
       style="fill:#ffffff" />
    <path
       d="m 37.492,104.196 c 1.673,0 2.53,-0.962 2.53,-3.582 v -4.692 l -1.5,-0.193 v -0.607 h 3.552 v 0.607 l -1.286,0.163 v 5.077 c 0,3.124 -1.5,4.28 -3.54,4.28 -2.145,0 -3.596,-1.185 -3.596,-3.954 v -1.598 l -0.03,-3.818 -1.228,-0.15 v -0.607 h 4.2 v 0.607 l -1.5,0.178 -0.03,3.8 v 1.17 c 0,2.532 0.947,3.33 2.456,3.33 m 12.22,-3.657 v 1.376 l 0.03,2.37 1.036,0.207 v 0.533 H 47.37 v -0.533 l 1.094,-0.207 0.03,-2.37 v -1.257 c 0,-1.362 -0.355,-1.793 -1.228,-1.793 -0.682,0 -1.26,0.266 -2.013,0.9 v 2.16 l 0.03,2.37 1.023,0.207 v 0.533 H 42.87 v -0.533 l 1.096,-0.207 0.03,-2.37 v -0.7 l -0.044,-1.85 -1.17,-0.134 v -0.517 l 2.073,-0.903 0.222,0.146 0.12,1.2 c 0.724,-0.8 1.732,-1.345 2.65,-1.345 1.274,0 1.895,0.8 1.895,2.738 m 2.786,-5.326 c 0,-0.577 0.43,-0.948 0.992,-0.948 0.546,0 1,0.37 1,0.948 0,0.548 -0.444,0.948 -1,0.948 -0.563,0 -0.992,-0.4 -0.992,-0.948 z m -0.756,9.8 v -0.533 l 1.1,-0.208 0.03,-2.368 V 101.24 L 52.858,99.374 51.675,99.24 v -0.517 l 2.278,-0.903 0.222,0.148 -0.044,2.013 v 1.954 l 0.03,2.368 1.036,0.208 v 0.533 H 51.77 Z m 7.388,0.09 -2.694,-6.395 -0.8,-0.148 v -0.578 h 3.58 v 0.578 l -1.3,0.192 1.806,4.768 1.657,-4.753 -1.214,-0.207 V 98.014 H 63 v 0.578 l -0.814,0.192 -2.397,6.35 z"
       id="path1064"
       style="fill:#ffffff" />
    <use
       xlink:href="#B"
       x="42.347"
       id="use1066"
       y="0"
       width="100%"
       height="100%"
       style="fill:#ffffff" />
    <path
       d="m 71.323,104.493 1.065,-0.193 0.03,-2.383 v -0.71 l -0.044,-1.85 -1.17,-0.132 v -0.517 l 2.073,-0.904 0.222,0.148 0.163,1.747 c 0.49,-1.184 1.332,-1.895 2.132,-1.895 0.444,0 0.89,0.222 1.067,0.548 0,0.696 -0.282,1.08 -0.875,1.08 -0.34,0 -0.62,-0.134 -0.903,-0.37 l -0.177,-0.163 c -0.593,0.446 -0.977,1.067 -1.23,1.9 v 1.11 l 0.03,2.354 1.213,0.222 v 0.533 h -3.598 v -0.533 z"
       id="path1068"
       style="fill:#ffffff" />
    <use
       xlink:href="#C"
       id="use1070"
       x="0"
       y="0"
       width="100%"
       height="100%"
       style="fill:#ffffff" />
    <use
       xlink:href="#D"
       id="use1072"
       x="0"
       y="0"
       width="100%"
       height="100%"
       style="fill:#ffffff" />
    <path
       d="m 91.243,104.448 c 0.326,0 0.622,-0.134 0.992,-0.4 l 0.356,0.385 c -0.386,0.504 -0.992,0.785 -1.747,0.785 -1.036,0 -1.688,-0.534 -1.688,-1.688 l 0.015,-1.26 v -3.5 h -1.23 v -0.653 l 1.318,-0.163 0.385,-1.983 h 0.887 l -0.073,2.012 h 1.983 v 0.787 h -2.01 v 4.588 c 0,0.755 0.312,1.08 0.814,1.08 m 1.97,3.286 c 0.104,-0.43 0.533,-0.65 0.992,-0.65 0.385,0 0.696,0.15 1.096,0.563 l 0.073,0.073 c 0.622,-0.53 1.052,-1.332 1.332,-2.132 l 0.06,-0.177 -2.68,-6.765 -0.814,-0.12 v -0.534 h 3.552 v 0.55 l -1.3,0.148 1.85,5.048 1.82,-5.033 -1.3,-0.178 v -0.534 h 2.887 v 0.534 l -0.8,0.163 -2.383,6.3 c -0.992,2.62 -1.822,3.73 -3.035,3.73 -0.74,0 -1.362,-0.4 -1.362,-0.977"
       id="path1074"
       style="fill:#ffffff" />
    <use
       xlink:href="#E"
       id="use1076"
       x="0"
       y="0"
       width="100%"
       height="100%"
       style="fill:#ffffff" />
    <path
       d="m 113.816,98.78 h -1.23 v -0.653 l 1.245,-0.163 c 0.148,-1.583 0.415,-2.44 1.05,-3.123 0.65,-0.696 1.408,-0.903 2.088,-0.903 0.696,0 1.272,0.22 1.42,0.8 -0.03,0.385 -0.353,0.667 -0.903,0.667 -0.368,0 -0.7,-0.15 -1.065,-0.444 l -0.414,-0.326 a 2.08,2.08 0 0 0 -0.504,0.562 c -0.295,0.534 -0.504,1.377 -0.458,2.8 h 2.042 v 0.785 h -2.013 v 3.137 l 0.03,2.354 1.33,0.224 v 0.53 h -3.818 v -0.53 l 1.17,-0.208 0.03,-2.37 v -3.14 z m 14.512,5.327 0.297,-1.717 h 0.918 l -0.06,2.147 c -0.918,0.502 -1.94,0.7 -3,0.7 -3,0 -5.02,-2.132 -5.02,-5.182 0,-3 2.132,-5.165 5.004,-5.165 0.814,0 1.866,0.134 2.857,0.7 l 0.06,2.146 h -0.918 l -0.295,-1.718 c -0.533,-0.295 -1.036,-0.4 -1.5,-0.4 -1.984,0 -3.582,1.54 -3.582,4.426 0,2.902 1.45,4.442 3.48,4.442 a 4.07,4.07 0 0 0 1.76,-0.4 m 9.18,-3.566 v 1.376 l 0.03,2.37 1.036,0.207 v 0.533 h -3.433 v -0.533 l 1.08,-0.192 0.03,-2.385 v -1.257 c 0,-1.362 -0.34,-1.793 -1.214,-1.793 -0.725,0 -1.333,0.282 -2.088,0.962 v 2.088 l 0.03,2.37 1.02,0.207 v 0.533 h -3.433 v -0.533 l 1.108,-0.207 0.03,-2.37 v -6.498 l -1.213,-0.148 v -0.517 l 2.265,-0.667 0.207,0.117 -0.06,2.103 v 2.872 c 0.725,-0.814 1.776,-1.376 2.7,-1.376 1.274,0 1.895,0.8 1.895,2.738"
       id="path1078"
       style="fill:#ffffff" />
    <use
       xlink:href="#D"
       x="55.630001"
       id="use1080"
       y="0"
       width="100%"
       height="100%"
       style="fill:#ffffff" />
    <path
       d="m 145.365,101.384 c 0,1.866 0.977,2.872 2.368,2.872 a 2.36,2.36 0 0 0 2.042,-1.125 l 0.37,0.192 c -0.415,1.228 -1.362,1.895 -2.753,1.895 -2.03,0 -3.33,-1.406 -3.33,-3.686 0,-2.34 1.644,-3.73 3.42,-3.73 1.332,0 2.427,0.83 2.62,1.925 -0.075,0.384 -0.312,0.562 -0.682,0.562 -0.504,0 -0.7,-0.297 -0.813,-0.7 l -0.268,-0.977 c -0.282,-0.088 -0.548,-0.12 -0.8,-0.12 -1.26,0 -2.176,1.007 -2.176,2.902 m 10.1,2.086 v -2.28 l -1.362,0.444 c -1.288,0.502 -1.45,1.064 -1.45,1.5 0,0.784 0.502,1.096 1.184,1.096 0.504,0 0.785,-0.178 1.628,-0.77 m 0.03,0.562 c -0.813,0.8 -1.303,1.185 -2.176,1.185 -1.08,0 -1.983,-0.624 -1.983,-1.85 0,-0.845 0.46,-1.5 2.458,-2.236 a 15.15,15.15 0 0 1 1.673,-0.489 v -0.37 c 0,-1.435 -0.415,-1.8 -1.392,-1.8 a 3.42,3.42 0 0 0 -0.799,0.088 l -0.28,0.962 c -0.134,0.46 -0.37,0.7 -0.77,0.7 a 0.63,0.63 0 0 1 -0.696,-0.606 c 0.283,-1.126 1.38,-1.835 2.887,-1.835 1.554,0 2.295,0.7 2.295,2.575 v 3.153 c 0,0.636 0.207,0.874 0.533,0.874 0.253,0 0.415,-0.134 0.577,-0.327 l 0.297,0.327 c -0.355,0.577 -0.77,0.77 -1.3,0.77 a 1.29,1.29 0 0 1 -1.332,-1.14 m 4.784,-3.78 c 0,1.08 0.518,1.82 1.435,1.82 0.948,0 1.5,-0.784 1.5,-1.88 0,-1.052 -0.534,-1.776 -1.452,-1.776 -0.933,0 -1.495,0.755 -1.495,1.835 m 4.07,6.144 c 0,-0.653 -0.415,-1.155 -1.48,-1.155 h -1.732 a 7.78,7.78 0 0 1 -0.606,-0.03 c -0.415,0.443 -0.578,0.843 -0.578,1.332 0,0.962 0.74,1.347 1.9,1.347 1.613,0 2.488,-0.665 2.488,-1.495 m -2.6,-8.586 c 0.755,0 1.408,0.192 1.88,0.577 l 1.673,-0.577 0.222,0.148 v 0.933 h -1.45 c 0.222,0.356 0.34,0.816 0.34,1.347 0,1.554 -1.138,2.427 -2.68,2.427 a 3.68,3.68 0 0 1 -1.096,-0.16 c -0.25,0.324 -0.37,0.606 -0.37,0.947 0,0.4 0.163,0.65 0.858,0.65 h 1.94 c 1.628,0 2.383,0.7 2.383,1.9 0,1.288 -1.228,2.56 -3.657,2.56 -2.146,0 -3.064,-0.74 -3.064,-1.8 0,-0.635 0.356,-1.154 1.452,-1.686 -0.65,-0.178 -0.977,-0.548 -0.977,-1.126 0,-0.458 0.266,-0.962 1.006,-1.642 -0.7,-0.385 -1.14,-1.08 -1.14,-2.088 0,-1.554 1.14,-2.427 2.68,-2.427"
       id="path1082"
       style="fill:#ffffff" />
    <use
       xlink:href="#E"
       x="61.335999"
       id="use1084"
       y="0"
       width="100%"
       height="100%"
       style="fill:#ffffff" />
    <path
       d="m 180.614,100.422 h 0.977 c 1.8,0 2.502,-0.962 2.502,-2.354 0,-1.435 -0.784,-2.265 -2.56,-2.265 h -0.9 l -0.03,3.908 v 0.7 z m -1.406,-0.7 -0.03,-3.818 -1.362,-0.163 v -0.6 h 3.98 c 2.502,0 3.76,1.214 3.76,2.946 0,1.66 -1.14,3.05 -4.173,3.05 h -0.77 l 0.03,3.138 1.38,0.163 v 0.607 h -4.205 v -0.607 l 1.362,-0.163 0.03,-3.818 v -0.726 z m 7.304,4.78 1.065,-0.193 0.03,-2.383 v -0.7 l -0.044,-1.85 -1.17,-0.132 v -0.517 l 2.073,-0.904 0.222,0.148 0.163,1.747 c 0.5,-1.184 1.332,-1.895 2.132,-1.895 0.444,0 0.9,0.222 1.065,0.548 0,0.696 -0.28,1.08 -0.874,1.08 -0.34,0 -0.62,-0.134 -0.903,-0.37 l -0.177,-0.163 c -0.593,0.446 -0.977,1.067 -1.23,1.9 v 1.1 l 0.03,2.354 1.213,0.222 v 0.533 h -3.598 v -0.533 z"
       id="path1086"
       style="fill:#ffffff" />
    <use
       xlink:href="#B"
       x="171.35201"
       id="use1088"
       y="0"
       width="100%"
       height="100%"
       style="fill:#ffffff" />
    <use
       xlink:href="#C"
       x="122.742"
       id="use1090"
       y="0"
       width="100%"
       height="100%"
       style="fill:#ffffff" />
    <use
       xlink:href="#C"
       x="129.168"
       id="use1092"
       y="0"
       width="100%"
       height="100%"
       style="fill:#ffffff" />
  </g>
</svg>
